%TF.GenerationSoftware,KiCad,Pcbnew,(6.0.11-0)*%
%TF.CreationDate,2023-07-02T11:26:45-05:00*%
%TF.ProjectId,typeboy,74797065-626f-4792-9e6b-696361645f70,v1.0.0*%
%TF.SameCoordinates,Original*%
%TF.FileFunction,Soldermask,Top*%
%TF.FilePolarity,Negative*%
%FSLAX46Y46*%
G04 Gerber Fmt 4.6, Leading zero omitted, Abs format (unit mm)*
G04 Created by KiCad (PCBNEW (6.0.11-0)) date 2023-07-02 11:26:45*
%MOMM*%
%LPD*%
G01*
G04 APERTURE LIST*
G04 Aperture macros list*
%AMRoundRect*
0 Rectangle with rounded corners*
0 $1 Rounding radius*
0 $2 $3 $4 $5 $6 $7 $8 $9 X,Y pos of 4 corners*
0 Add a 4 corners polygon primitive as box body*
4,1,4,$2,$3,$4,$5,$6,$7,$8,$9,$2,$3,0*
0 Add four circle primitives for the rounded corners*
1,1,$1+$1,$2,$3*
1,1,$1+$1,$4,$5*
1,1,$1+$1,$6,$7*
1,1,$1+$1,$8,$9*
0 Add four rect primitives between the rounded corners*
20,1,$1+$1,$2,$3,$4,$5,0*
20,1,$1+$1,$4,$5,$6,$7,0*
20,1,$1+$1,$6,$7,$8,$9,0*
20,1,$1+$1,$8,$9,$2,$3,0*%
G04 Aperture macros list end*
%ADD10RoundRect,0.050000X-0.450000X-0.600000X0.450000X-0.600000X0.450000X0.600000X-0.450000X0.600000X0*%
%ADD11RoundRect,0.050000X-0.889000X-0.889000X0.889000X-0.889000X0.889000X0.889000X-0.889000X0.889000X0*%
%ADD12C,2.005000*%
%ADD13C,1.801800*%
%ADD14C,3.100000*%
%ADD15C,3.529000*%
%ADD16RoundRect,0.050000X-1.300000X-1.300000X1.300000X-1.300000X1.300000X1.300000X-1.300000X1.300000X0*%
%ADD17RoundRect,0.050000X-1.206150X-1.387517X1.387517X-1.206150X1.206150X1.387517X-1.387517X1.206150X0*%
%ADD18C,2.100000*%
%ADD19RoundRect,0.050000X-1.250000X0.500000X-1.250000X-0.500000X1.250000X-0.500000X1.250000X0.500000X0*%
%ADD20RoundRect,0.050000X-1.000000X2.250000X-1.000000X-2.250000X1.000000X-2.250000X1.000000X2.250000X0*%
%ADD21C,0.800000*%
%ADD22C,4.500000*%
%ADD23RoundRect,0.050000X-0.428786X-0.615339X0.470666X-0.583930X0.428786X0.615339X-0.470666X0.583930X0*%
%ADD24RoundRect,0.050000X-0.857433X-0.919484X0.919484X-0.857433X0.857433X0.919484X-0.919484X0.857433X0*%
%ADD25RoundRect,0.050000X-1.253839X-1.344577X1.344577X-1.253839X1.253839X1.344577X-1.344577X1.253839X0*%
%ADD26RoundRect,0.050000X-0.824821X-0.948848X0.948848X-0.824821X0.824821X0.948848X-0.948848X0.824821X0*%
%ADD27RoundRect,0.050000X-0.407050X-0.629929X0.490758X-0.567148X0.407050X0.629929X-0.490758X0.567148X0*%
%ADD28C,1.200000*%
%ADD29RoundRect,0.050000X0.614839X0.542653X-0.366788X0.733462X-0.614839X-0.542653X0.366788X-0.733462X0*%
%ADD30RoundRect,0.050000X0.325397X-1.214397X1.214397X0.325397X-0.325397X1.214397X-1.214397X-0.325397X0*%
%ADD31RoundRect,0.050000X0.294615X-0.689711X0.744615X0.089711X-0.294615X0.689711X-0.744615X-0.089711X0*%
%ADD32RoundRect,0.050000X-1.088798X-0.628618X0.628618X-1.088798X1.088798X0.628618X-0.628618X1.088798X0*%
%ADD33RoundRect,0.050000X-0.589958X-0.463087X0.279375X-0.696024X0.589958X0.463087X-0.279375X0.696024X0*%
%ADD34C,2.200000*%
%ADD35C,1.850000*%
%ADD36O,2.300000X3.600000*%
%ADD37RoundRect,0.050000X-0.750000X-1.250000X0.750000X-1.250000X0.750000X1.250000X-0.750000X1.250000X0*%
%ADD38O,1.600000X2.600000*%
%ADD39RoundRect,0.050000X-1.592168X-0.919239X0.919239X-1.592168X1.592168X0.919239X-0.919239X1.592168X0*%
%ADD40RoundRect,0.050000X0.475833X-1.775833X1.775833X0.475833X-0.475833X1.775833X-1.775833X-0.475833X0*%
G04 APERTURE END LIST*
D10*
%TO.C,D27*%
X160043765Y-130910944D03*
D11*
X157883765Y-130910944D03*
D12*
X165503765Y-130910944D03*
D10*
X163343765Y-130910944D03*
%TD*%
%TO.C,D17*%
X124043771Y-142910938D03*
D11*
X121883771Y-142910938D03*
D10*
X127343771Y-142910938D03*
D12*
X129503771Y-142910938D03*
%TD*%
D13*
%TO.C,S13*%
X102193771Y-123410943D03*
D14*
X102693771Y-119660943D03*
D15*
X107693771Y-123410943D03*
D14*
X107693771Y-117460943D03*
D13*
X113193771Y-123410943D03*
D14*
X112693771Y-119660943D03*
X107693771Y-117460943D03*
D16*
X110968771Y-117460943D03*
X99418771Y-119660943D03*
%TD*%
D10*
%TO.C,D15*%
X124043769Y-176910943D03*
D11*
X121883769Y-176910943D03*
D12*
X129503769Y-176910943D03*
D10*
X127343769Y-176910943D03*
%TD*%
D13*
%TO.C,S3*%
X74026491Y-149526181D03*
D14*
X68124838Y-143974336D03*
X73266122Y-145820194D03*
X68124838Y-143974336D03*
D13*
X63053287Y-150293503D03*
D15*
X68539889Y-149909842D03*
D14*
X63290482Y-146517759D03*
D17*
X71391860Y-143745883D03*
X60023460Y-146746212D03*
%TD*%
D18*
%TO.C,J2*%
X182441009Y-168430491D03*
X182441009Y-142566411D03*
D19*
X174643769Y-132248451D03*
X174643769Y-133748451D03*
X174643769Y-135248451D03*
X174643769Y-136748451D03*
X174643769Y-138248451D03*
X174643769Y-139748451D03*
X174643769Y-141248451D03*
X174643769Y-142748451D03*
X174643769Y-144248451D03*
X174643769Y-145748451D03*
X174643769Y-147248451D03*
X174643769Y-148748451D03*
X174643769Y-150248451D03*
X174643769Y-151748451D03*
X174643769Y-153248451D03*
X174643769Y-154748451D03*
X174643769Y-156248451D03*
X174643769Y-157748451D03*
X174643769Y-159248451D03*
X174643769Y-160748451D03*
X174643769Y-162248451D03*
X174643769Y-163748451D03*
X174643769Y-165248451D03*
X174643769Y-166748451D03*
X174643769Y-168248451D03*
X174643769Y-169748451D03*
X174643769Y-171248451D03*
X174643769Y-172748451D03*
X174643769Y-174248451D03*
X174643769Y-175748451D03*
X174643769Y-177248451D03*
X174643769Y-178748451D03*
D20*
X193314569Y-168180491D03*
X193314569Y-142816411D03*
%TD*%
D21*
%TO.C,_1*%
X177160491Y-189127665D03*
D22*
X175993765Y-187960939D03*
D21*
X175993765Y-189610939D03*
X177160491Y-186794213D03*
X174343765Y-187960939D03*
X174827039Y-186794213D03*
X174827039Y-189127665D03*
X177643765Y-187960939D03*
X175993765Y-186310939D03*
%TD*%
D11*
%TO.C,D19*%
X139883767Y-196410939D03*
D10*
X142043767Y-196410939D03*
X145343767Y-196410939D03*
D12*
X147503767Y-196410939D03*
%TD*%
D11*
%TO.C,D16*%
X121883769Y-159910942D03*
D10*
X124043769Y-159910942D03*
X127343769Y-159910942D03*
D12*
X129503769Y-159910942D03*
%TD*%
D23*
%TO.C,D8*%
X86031565Y-134132048D03*
D24*
X83872881Y-134207431D03*
D23*
X89329555Y-134016880D03*
D12*
X91488239Y-133941497D03*
%TD*%
D14*
%TO.C,S27*%
X156693764Y-122160945D03*
X161693764Y-119960945D03*
D13*
X156193764Y-125910945D03*
D14*
X161693764Y-119960945D03*
X166693764Y-122160945D03*
D13*
X167193764Y-125910945D03*
D15*
X161693764Y-125910945D03*
D16*
X164968764Y-119960945D03*
X153418764Y-122160945D03*
%TD*%
D14*
%TO.C,S7*%
X92965433Y-142144942D03*
D13*
X93596002Y-145875208D03*
D14*
X87891700Y-140120780D03*
X87891700Y-140120780D03*
X82971525Y-142493937D03*
D13*
X82602702Y-146259102D03*
D15*
X88099352Y-146067155D03*
D25*
X91164705Y-140006484D03*
X79698520Y-142608233D03*
%TD*%
D26*
%TO.C,D3*%
X65087953Y-155163441D03*
D27*
X67242691Y-155012767D03*
X70534653Y-154782571D03*
D12*
X72689391Y-154631897D03*
%TD*%
D27*
%TO.C,D4*%
X66056832Y-138054181D03*
D26*
X63902094Y-138204855D03*
D12*
X71503532Y-137673311D03*
D27*
X69348794Y-137823985D03*
%TD*%
D10*
%TO.C,D26*%
X160043767Y-147910947D03*
D11*
X157883767Y-147910947D03*
D10*
X163343767Y-147910947D03*
D12*
X165503767Y-147910947D03*
%TD*%
D15*
%TO.C,S1*%
X70911606Y-183827024D03*
D13*
X65425004Y-184210685D03*
D14*
X65662199Y-180434941D03*
X70496555Y-177891518D03*
X75637839Y-179737376D03*
X70496555Y-177891518D03*
D13*
X76398208Y-183443363D03*
D17*
X73763577Y-177663065D03*
X62395177Y-180663394D03*
%TD*%
D28*
%TO.C,S\u002A\u002A*%
X91494420Y-197713278D03*
X87764237Y-196988204D03*
X87764237Y-196988204D03*
X91494420Y-197713278D03*
D29*
X92946288Y-196008995D03*
X87056525Y-194864141D03*
X90983033Y-195627377D03*
X89019779Y-195245759D03*
%TD*%
D13*
%TO.C,S9*%
X102193767Y-191410946D03*
D15*
X107693767Y-191410946D03*
D14*
X107693767Y-185460946D03*
X102693767Y-187660946D03*
D13*
X113193767Y-191410946D03*
D14*
X112693767Y-187660946D03*
X107693767Y-185460946D03*
D16*
X110968767Y-185460946D03*
X99418767Y-187660946D03*
%TD*%
D30*
%TO.C,D29*%
X184737614Y-207369239D03*
D31*
X185817614Y-205498624D03*
D12*
X188547614Y-200770125D03*
D31*
X187467614Y-202640740D03*
%TD*%
D15*
%TO.C,S10*%
X107693768Y-174410941D03*
D14*
X107693768Y-168460941D03*
D13*
X102193768Y-174410941D03*
D14*
X102693768Y-170660941D03*
X107693768Y-168460941D03*
X112693768Y-170660941D03*
D13*
X113193768Y-174410941D03*
D16*
X110968768Y-168460941D03*
X99418768Y-170660941D03*
%TD*%
D14*
%TO.C,S19*%
X143693769Y-185460937D03*
D13*
X138193769Y-191410937D03*
D15*
X143693769Y-191410937D03*
D14*
X148693769Y-187660937D03*
X138693769Y-187660937D03*
X143693769Y-185460937D03*
D13*
X149193769Y-191410937D03*
D16*
X146968769Y-185460937D03*
X135418769Y-187660937D03*
%TD*%
D32*
%TO.C,D28*%
X158219496Y-199754469D03*
D33*
X160305895Y-200313519D03*
D12*
X165579850Y-201726671D03*
D33*
X163493451Y-201167621D03*
%TD*%
D10*
%TO.C,D24*%
X160043773Y-181910941D03*
D11*
X157883773Y-181910941D03*
D12*
X165503773Y-181910941D03*
D10*
X163343773Y-181910941D03*
%TD*%
D14*
%TO.C,S8*%
X87298418Y-123131136D03*
X82378243Y-125504293D03*
D15*
X87506070Y-129077511D03*
D13*
X93002720Y-128885564D03*
X82009420Y-129269458D03*
D14*
X87298418Y-123131136D03*
X92372151Y-125155298D03*
D25*
X90571423Y-123016840D03*
X79105238Y-125618589D03*
%TD*%
D26*
%TO.C,D2*%
X66273815Y-172122026D03*
D27*
X68428553Y-171971352D03*
X71720515Y-171741156D03*
D12*
X73875253Y-171590482D03*
%TD*%
D34*
%TO.C,REF\u002A\u002A*%
X174743763Y-120202500D03*
X181753763Y-120202500D03*
D35*
X175993763Y-117712500D03*
X180493763Y-117712500D03*
%TD*%
D21*
%TO.C,_2*%
X190843773Y-124210943D03*
X188027047Y-123044217D03*
D22*
X189193773Y-124210943D03*
D21*
X189193773Y-122560943D03*
X187543773Y-124210943D03*
X190360499Y-125377669D03*
X189193773Y-125860943D03*
X188027047Y-125377669D03*
X190360499Y-123044217D03*
%TD*%
D10*
%TO.C,D20*%
X142043769Y-179410938D03*
D11*
X139883769Y-179410938D03*
D10*
X145343769Y-179410938D03*
D12*
X147503769Y-179410938D03*
%TD*%
D14*
%TO.C,S20*%
X138693769Y-170660940D03*
D15*
X143693769Y-174410940D03*
D14*
X143693769Y-168460940D03*
D13*
X149193769Y-174410940D03*
X138193769Y-174410940D03*
D14*
X143693769Y-168460940D03*
X148693769Y-170660940D03*
D16*
X146968769Y-168460940D03*
X135418769Y-170660940D03*
%TD*%
D10*
%TO.C,D12*%
X106043759Y-145410945D03*
D11*
X103883759Y-145410945D03*
D10*
X109343759Y-145410945D03*
D12*
X111503759Y-145410945D03*
%TD*%
D14*
%TO.C,S14*%
X120693773Y-185160943D03*
X125693773Y-182960943D03*
X130693773Y-185160943D03*
X125693773Y-182960943D03*
D13*
X131193773Y-188910943D03*
X120193773Y-188910943D03*
D15*
X125693773Y-188910943D03*
D16*
X128968773Y-182960943D03*
X117418773Y-185160943D03*
%TD*%
D13*
%TO.C,S18*%
X120193769Y-120910937D03*
D15*
X125693769Y-120910937D03*
D13*
X131193769Y-120910937D03*
D14*
X125693769Y-114960937D03*
X120693769Y-117160937D03*
X130693769Y-117160937D03*
X125693769Y-114960937D03*
D16*
X128968769Y-114960937D03*
X117418769Y-117160937D03*
%TD*%
D13*
%TO.C,S25*%
X167193767Y-159910940D03*
D14*
X161693767Y-153960940D03*
D13*
X156193767Y-159910940D03*
D14*
X156693767Y-156160940D03*
D15*
X161693767Y-159910940D03*
D14*
X166693767Y-156160940D03*
X161693767Y-153960940D03*
D16*
X164968767Y-153960940D03*
X153418767Y-156160940D03*
%TD*%
D13*
%TO.C,S2*%
X75212351Y-166484776D03*
X64239147Y-167252098D03*
D14*
X69310698Y-160932931D03*
X69310698Y-160932931D03*
X74451982Y-162778789D03*
D15*
X69725749Y-166868437D03*
D14*
X64476342Y-163476354D03*
D17*
X72577720Y-160704478D03*
X61209320Y-163704807D03*
%TD*%
D21*
%TO.C,_3*%
X75983042Y-194231882D03*
X77343411Y-196960360D03*
D22*
X77228313Y-195314379D03*
D21*
X78310810Y-194069108D03*
X78874294Y-195199281D03*
X78473584Y-196396876D03*
X77113215Y-193668398D03*
X75582332Y-195429477D03*
X76145816Y-196559650D03*
%TD*%
D11*
%TO.C,D21*%
X139883768Y-162410943D03*
D10*
X142043768Y-162410943D03*
X145343768Y-162410943D03*
D12*
X147503768Y-162410943D03*
%TD*%
D10*
%TO.C,D14*%
X124043773Y-193910948D03*
D11*
X121883773Y-193910948D03*
D10*
X127343773Y-193910948D03*
D12*
X129503773Y-193910948D03*
%TD*%
D26*
%TO.C,D1*%
X67459671Y-189080613D03*
D27*
X69614409Y-188929939D03*
D12*
X75061109Y-188549069D03*
D27*
X72906371Y-188699743D03*
%TD*%
D10*
%TO.C,D22*%
X142043770Y-145410947D03*
D11*
X139883770Y-145410947D03*
D12*
X147503770Y-145410947D03*
D10*
X145343770Y-145410947D03*
%TD*%
D13*
%TO.C,S17*%
X131193766Y-137910943D03*
D14*
X130693766Y-134160943D03*
D15*
X125693766Y-137910943D03*
D14*
X120693766Y-134160943D03*
X125693766Y-131960943D03*
X125693766Y-131960943D03*
D13*
X120193766Y-137910943D03*
D16*
X128968766Y-131960943D03*
X117418766Y-134160943D03*
%TD*%
D14*
%TO.C,S15*%
X120693767Y-168160944D03*
X130693767Y-168160944D03*
X125693767Y-165960944D03*
D13*
X131193767Y-171910944D03*
D14*
X125693767Y-165960944D03*
D13*
X120193767Y-171910944D03*
D15*
X125693767Y-171910944D03*
D16*
X128968767Y-165960944D03*
X117418767Y-168160944D03*
%TD*%
D14*
%TO.C,S21*%
X143693772Y-151460945D03*
D15*
X143693772Y-157410945D03*
D14*
X143693772Y-151460945D03*
D13*
X138193772Y-157410945D03*
D14*
X148693772Y-153660945D03*
D13*
X149193772Y-157410945D03*
D14*
X138693772Y-153660945D03*
D16*
X146968772Y-151460945D03*
X135418772Y-153660945D03*
%TD*%
D14*
%TO.C,S22*%
X143693770Y-134460947D03*
X138693770Y-136660947D03*
D13*
X149193770Y-140410947D03*
X138193770Y-140410947D03*
D15*
X143693770Y-140410947D03*
D14*
X148693770Y-136660947D03*
X143693770Y-134460947D03*
D16*
X146968770Y-134460947D03*
X135418770Y-136660947D03*
%TD*%
D14*
%TO.C,S24*%
X156693769Y-173160940D03*
D13*
X156193769Y-176910940D03*
D14*
X161693769Y-170960940D03*
D13*
X167193769Y-176910940D03*
D15*
X161693769Y-176910940D03*
D14*
X161693769Y-170960940D03*
X166693769Y-173160940D03*
D16*
X164968769Y-170960940D03*
X153418769Y-173160940D03*
%TD*%
D36*
%TO.C,REF\u002A\u002A*%
X193493769Y-117329996D03*
X185293769Y-117329996D03*
D37*
X191393769Y-117329996D03*
D38*
X189393769Y-117329996D03*
X187393769Y-117329996D03*
%TD*%
D13*
%TO.C,S5*%
X94782589Y-179854498D03*
D15*
X89285939Y-180046445D03*
D14*
X94152020Y-176124232D03*
D13*
X83789289Y-180238392D03*
D14*
X84158112Y-176473227D03*
X89078287Y-174100070D03*
X89078287Y-174100070D03*
D25*
X92351292Y-173985774D03*
X80885107Y-176587523D03*
%TD*%
D10*
%TO.C,D9*%
X106043764Y-196410940D03*
D11*
X103883764Y-196410940D03*
D12*
X111503764Y-196410940D03*
D10*
X109343764Y-196410940D03*
%TD*%
D14*
%TO.C,S28*%
X159334710Y-190994630D03*
D15*
X163193768Y-195910947D03*
D14*
X164733741Y-190163688D03*
X164733741Y-190163688D03*
D13*
X157881176Y-194487442D03*
X168506360Y-197334452D03*
D14*
X168993969Y-193582820D03*
D39*
X167897148Y-191011321D03*
X156171303Y-190146998D03*
%TD*%
D14*
%TO.C,S11*%
X112693770Y-153660945D03*
X107693770Y-151460945D03*
X102693770Y-153660945D03*
D15*
X107693770Y-157410945D03*
D13*
X113193770Y-157410945D03*
D14*
X107693770Y-151460945D03*
D13*
X102193770Y-157410945D03*
D16*
X110968770Y-151460945D03*
X99418770Y-153660945D03*
%TD*%
D14*
%TO.C,S29*%
X177159632Y-198594685D03*
X176564888Y-204024812D03*
D15*
X182312483Y-201569685D03*
D14*
X177159632Y-198594685D03*
D13*
X179562483Y-206332825D03*
X185062483Y-196806545D03*
D14*
X181564888Y-195364558D03*
D40*
X178797132Y-195758452D03*
X174927388Y-206861045D03*
%TD*%
D23*
%TO.C,D7*%
X86624867Y-151121690D03*
D24*
X84466183Y-151197073D03*
D23*
X89922857Y-151006522D03*
D12*
X92081541Y-150931139D03*
%TD*%
D10*
%TO.C,D11*%
X106043764Y-162410948D03*
D11*
X103883764Y-162410948D03*
D12*
X111503764Y-162410948D03*
D10*
X109343764Y-162410948D03*
%TD*%
D21*
%TO.C,_4*%
X78889998Y-136578870D03*
X79433672Y-137718705D03*
X77699579Y-136157320D03*
X79012122Y-138909124D03*
X77872287Y-139452798D03*
X76138194Y-137891413D03*
X76559744Y-136700994D03*
X76681868Y-139031248D03*
D22*
X77785933Y-137805059D03*
%TD*%
D14*
%TO.C,S6*%
X93558729Y-159134585D03*
X83564821Y-159483580D03*
D13*
X83195998Y-163248745D03*
D14*
X88484996Y-157110423D03*
D13*
X94189298Y-162864851D03*
D14*
X88484996Y-157110423D03*
D15*
X88692648Y-163056798D03*
D25*
X91758001Y-156996127D03*
X80291816Y-159597876D03*
%TD*%
D14*
%TO.C,S12*%
X107693767Y-134460944D03*
D15*
X107693767Y-140410944D03*
D13*
X102193767Y-140410944D03*
X113193767Y-140410944D03*
D14*
X102693767Y-136660944D03*
X112693767Y-136660944D03*
X107693767Y-134460944D03*
D16*
X110968767Y-134460944D03*
X99418767Y-136660944D03*
%TD*%
D23*
%TO.C,D5*%
X87811436Y-185100981D03*
D24*
X85652752Y-185176364D03*
D23*
X91109426Y-184985813D03*
D12*
X93268110Y-184910430D03*
%TD*%
D14*
%TO.C,S23*%
X138693773Y-119660944D03*
X148693773Y-119660944D03*
D13*
X149193773Y-123410944D03*
D14*
X143693773Y-117460944D03*
X143693773Y-117460944D03*
D15*
X143693773Y-123410944D03*
D13*
X138193773Y-123410944D03*
D16*
X146968773Y-117460944D03*
X135418773Y-119660944D03*
%TD*%
D10*
%TO.C,D18*%
X124043767Y-125910939D03*
D11*
X121883767Y-125910939D03*
D10*
X127343767Y-125910939D03*
D12*
X129503767Y-125910939D03*
%TD*%
D13*
%TO.C,S26*%
X167193770Y-142910950D03*
D14*
X166693770Y-139160950D03*
D13*
X156193770Y-142910950D03*
D14*
X161693770Y-136960950D03*
X161693770Y-136960950D03*
X156693770Y-139160950D03*
D15*
X161693770Y-142910950D03*
D16*
X164968770Y-136960950D03*
X153418770Y-139160950D03*
%TD*%
D11*
%TO.C,D25*%
X157883770Y-164910936D03*
D10*
X160043770Y-164910936D03*
X163343770Y-164910936D03*
D12*
X165503770Y-164910936D03*
%TD*%
D14*
%TO.C,S16*%
X130693771Y-151160946D03*
X125693771Y-148960946D03*
D13*
X131193771Y-154910946D03*
D14*
X120693771Y-151160946D03*
D13*
X120193771Y-154910946D03*
D14*
X125693771Y-148960946D03*
D15*
X125693771Y-154910946D03*
D16*
X128968771Y-148960946D03*
X117418771Y-151160946D03*
%TD*%
D13*
%TO.C,S4*%
X72840635Y-132567601D03*
D14*
X66938982Y-127015756D03*
X62104626Y-129559179D03*
D13*
X61867431Y-133334923D03*
D14*
X66938982Y-127015756D03*
D15*
X67354033Y-132951262D03*
D14*
X72080266Y-128861614D03*
D17*
X70206004Y-126787303D03*
X58837604Y-129787632D03*
%TD*%
D10*
%TO.C,D13*%
X106043768Y-128410940D03*
D11*
X103883768Y-128410940D03*
D10*
X109343768Y-128410940D03*
D12*
X111503768Y-128410940D03*
%TD*%
D11*
%TO.C,D10*%
X103883768Y-179410941D03*
D10*
X106043768Y-179410941D03*
D12*
X111503768Y-179410941D03*
D10*
X109343768Y-179410941D03*
%TD*%
%TO.C,D23*%
X142043772Y-128410944D03*
D11*
X139883772Y-128410944D03*
D10*
X145343772Y-128410944D03*
D12*
X147503772Y-128410944D03*
%TD*%
D24*
%TO.C,D6*%
X85059464Y-168186718D03*
D23*
X87218148Y-168111335D03*
X90516138Y-167996167D03*
D12*
X92674822Y-167920784D03*
%TD*%
M02*
