%TF.GenerationSoftware,KiCad,Pcbnew,(6.0.11-0)*%
%TF.CreationDate,2023-06-20T20:04:49-05:00*%
%TF.ProjectId,typeboy,74797065-626f-4792-9e6b-696361645f70,v1.0.0*%
%TF.SameCoordinates,Original*%
%TF.FileFunction,Profile,NP*%
%FSLAX46Y46*%
G04 Gerber Fmt 4.6, Leading zero omitted, Abs format (unit mm)*
G04 Created by KiCad (PCBNEW (6.0.11-0)) date 2023-06-20 20:04:49*
%MOMM*%
%LPD*%
G01*
G04 APERTURE LIST*
%TA.AperFunction,Profile*%
%ADD10C,0.150000*%
%TD*%
G04 APERTURE END LIST*
D10*
X139953496Y-111500430D02*
X119953500Y-111500421D01*
X100861019Y-202982870D02*
G75*
G03*
X101047621Y-203000421I186581J982970D01*
G01*
X80440944Y-121056678D02*
X80471388Y-121928258D01*
X140953501Y-113000425D02*
X140953503Y-112500424D01*
X101953492Y-114000392D02*
G75*
G03*
X100953492Y-115000424I-92J-999908D01*
G01*
X153579449Y-204153287D02*
X175262123Y-209963141D01*
X123953497Y-200500393D02*
G75*
G03*
X122953493Y-201500422I103J-1000107D01*
G01*
X157953498Y-114000427D02*
X141953493Y-114000426D01*
X119953500Y-111500391D02*
G75*
G03*
X118953491Y-112500418I-100J-999909D01*
G01*
X158953478Y-115000432D02*
G75*
G03*
X159953498Y-116000422I1000022J32D01*
G01*
X79541749Y-122960753D02*
G75*
G03*
X80471388Y-121928258I-69849J997653D01*
G01*
X123953497Y-200500418D02*
X135953505Y-200500421D01*
X65687775Y-196302072D02*
X100861020Y-202982865D01*
X189322138Y-217011290D02*
X175452610Y-210035685D01*
X99988399Y-119373450D02*
X81405440Y-120022380D01*
X153579449Y-204153287D02*
X153585061Y-204061270D01*
X117953488Y-114000391D02*
G75*
G03*
X118953491Y-113000416I-88J1000091D01*
G01*
X118953491Y-112500418D02*
X118953491Y-113000416D01*
X190637480Y-216617918D02*
X201031598Y-198614780D01*
X136953478Y-202000420D02*
G75*
G03*
X137953502Y-203000422I1000022J20D01*
G01*
X137953502Y-203000422D02*
X152586909Y-203000425D01*
X158953473Y-115000432D02*
G75*
G03*
X157953498Y-114000427I-999973J32D01*
G01*
X153585021Y-204061268D02*
G75*
G03*
X152586909Y-203000425I-998121J60868D01*
G01*
X60905671Y-124263882D02*
G75*
G03*
X59977873Y-125331202I69829J-997618D01*
G01*
X140953474Y-113000425D02*
G75*
G03*
X141953493Y-114000426I1000026J25D01*
G01*
X81405438Y-120022332D02*
G75*
G03*
X80440944Y-121056678I34762J-999268D01*
G01*
X79541747Y-122960722D02*
X60905671Y-124263883D01*
X121953496Y-203000398D02*
G75*
G03*
X122953498Y-202000420I104J999898D01*
G01*
X201193180Y-117000755D02*
G75*
G03*
X200193158Y-116000420I-999980J355D01*
G01*
X136953500Y-201500428D02*
X136953494Y-202000420D01*
X201193147Y-117000755D02*
X201165579Y-198115125D01*
X140953470Y-112500424D02*
G75*
G03*
X139953496Y-111500430I-999970J24D01*
G01*
X64876793Y-195389396D02*
G75*
G03*
X65687773Y-196302067I997707J69896D01*
G01*
X189322132Y-217011301D02*
G75*
G03*
X190637484Y-216617912I449368J893201D01*
G01*
X175452608Y-210035688D02*
G75*
G03*
X175262123Y-209963141I-449508J-893912D01*
G01*
X159953498Y-116000422D02*
X200193158Y-116000420D01*
X136953479Y-201500428D02*
G75*
G03*
X135953505Y-200500421I-999979J28D01*
G01*
X122953498Y-202000420D02*
X122953493Y-201500422D01*
X59977874Y-125331203D02*
X64876807Y-195389395D01*
X101953492Y-114000424D02*
X117953488Y-114000424D01*
X100953492Y-115000424D02*
X100953496Y-118374063D01*
X201031601Y-198614781D02*
G75*
G03*
X201165579Y-198115125I-866301J500081D01*
G01*
X99988400Y-119373483D02*
G75*
G03*
X100953496Y-118374063I-35000J999483D01*
G01*
X101047621Y-203000421D02*
X121953496Y-203000415D01*
M02*
