%TF.GenerationSoftware,KiCad,Pcbnew,(6.0.11-0)*%
%TF.CreationDate,2023-06-20T20:04:49-05:00*%
%TF.ProjectId,typeboy,74797065-626f-4792-9e6b-696361645f70,v1.0.0*%
%TF.SameCoordinates,Original*%
%TF.FileFunction,Paste,Bot*%
%TF.FilePolarity,Positive*%
%FSLAX46Y46*%
G04 Gerber Fmt 4.6, Leading zero omitted, Abs format (unit mm)*
G04 Created by KiCad (PCBNEW (6.0.11-0)) date 2023-06-20 20:04:49*
%MOMM*%
%LPD*%
G01*
G04 APERTURE LIST*
G04 Aperture macros list*
%AMRotRect*
0 Rectangle, with rotation*
0 The origin of the aperture is its center*
0 $1 length*
0 $2 width*
0 $3 Rotation angle, in degrees counterclockwise*
0 Add horizontal line*
21,1,$1,$2,0,0,$3*%
G04 Aperture macros list end*
%ADD10RotRect,0.900000X1.200000X4.000000*%
%ADD11R,0.900000X1.200000*%
%ADD12RotRect,0.900000X1.200000X2.000000*%
%ADD13R,2.600000X2.600000*%
%ADD14RotRect,2.600000X2.600000X2.000000*%
%ADD15RotRect,2.600000X2.600000X4.000000*%
%ADD16RotRect,1.300000X1.300000X349.000000*%
%ADD17RotRect,2.600000X2.600000X60.000000*%
%ADD18RotRect,2.600000X2.600000X345.000000*%
%ADD19R,2.500000X1.000000*%
%ADD20R,2.000000X4.500000*%
%ADD21RotRect,0.900000X1.200000X60.000000*%
%ADD22RotRect,0.900000X1.200000X345.000000*%
G04 APERTURE END LIST*
D10*
%TO.C,D2*%
X72688279Y-173060832D03*
X75980241Y-172830636D03*
%TD*%
D11*
%TO.C,D26*%
X164303498Y-149000430D03*
X167603498Y-149000430D03*
%TD*%
D12*
%TO.C,D8*%
X90291295Y-135221533D03*
X93589285Y-135106365D03*
%TD*%
%TO.C,D6*%
X91477877Y-169200820D03*
X94775867Y-169085652D03*
%TD*%
D13*
%TO.C,S15*%
X126678500Y-167050421D03*
X138228500Y-169250421D03*
%TD*%
D11*
%TO.C,D25*%
X164303496Y-166000428D03*
X167603496Y-166000428D03*
%TD*%
D13*
%TO.C,S16*%
X126678489Y-150050416D03*
X138228489Y-152250416D03*
%TD*%
D14*
%TO.C,S7*%
X88878431Y-141324557D03*
X100498174Y-143120128D03*
%TD*%
D11*
%TO.C,D23*%
X146303490Y-129500424D03*
X149603490Y-129500424D03*
%TD*%
%TO.C,D10*%
X110303499Y-180500426D03*
X113603499Y-180500426D03*
%TD*%
D13*
%TO.C,S21*%
X144678500Y-152550426D03*
X156228500Y-154750426D03*
%TD*%
%TO.C,S24*%
X162678497Y-172050430D03*
X174228497Y-174250430D03*
%TD*%
D11*
%TO.C,D20*%
X146303499Y-180500423D03*
X149603499Y-180500423D03*
%TD*%
%TO.C,D24*%
X164303494Y-183000424D03*
X167603494Y-183000424D03*
%TD*%
D13*
%TO.C,S19*%
X144678497Y-186550421D03*
X156228497Y-188750421D03*
%TD*%
D11*
%TO.C,D18*%
X128303491Y-127000419D03*
X131603491Y-127000419D03*
%TD*%
D15*
%TO.C,S1*%
X71489252Y-179209456D03*
X83164581Y-180598410D03*
%TD*%
D13*
%TO.C,S10*%
X108678490Y-169550431D03*
X120228490Y-171750431D03*
%TD*%
D11*
%TO.C,D11*%
X110303491Y-163500423D03*
X113603491Y-163500423D03*
%TD*%
D13*
%TO.C,S14*%
X126678497Y-184050422D03*
X138228497Y-186250422D03*
%TD*%
%TO.C,S11*%
X108678497Y-152550426D03*
X120228497Y-154750426D03*
%TD*%
D12*
%TO.C,D5*%
X92071165Y-186190471D03*
X95369155Y-186075303D03*
%TD*%
D14*
%TO.C,S8*%
X88285139Y-124334912D03*
X99904882Y-126130483D03*
%TD*%
D13*
%TO.C,S26*%
X162678500Y-138050419D03*
X174228500Y-140250419D03*
%TD*%
%TO.C,S27*%
X162678502Y-121050420D03*
X174228502Y-123250420D03*
%TD*%
D10*
%TO.C,D1*%
X73874136Y-190019429D03*
X77166098Y-189789233D03*
%TD*%
%TO.C,D3*%
X71502413Y-156102245D03*
X74794375Y-155872049D03*
%TD*%
D13*
%TO.C,S12*%
X108678492Y-135550421D03*
X120228492Y-137750421D03*
%TD*%
D12*
%TO.C,D7*%
X90884587Y-152211177D03*
X94182577Y-152096009D03*
%TD*%
D15*
%TO.C,S2*%
X70303400Y-162250858D03*
X81978729Y-163639812D03*
%TD*%
D16*
%TO.C,REF\u002A\u002A*%
X97001251Y-193035153D03*
X94449020Y-192539050D03*
X91896790Y-192042946D03*
X89344559Y-191546843D03*
X97232054Y-199446996D03*
X86728643Y-197405340D03*
%TD*%
D11*
%TO.C,D15*%
X128303496Y-178000420D03*
X131603496Y-178000420D03*
%TD*%
%TO.C,D12*%
X110303496Y-146500429D03*
X113603496Y-146500429D03*
%TD*%
D17*
%TO.C,S29*%
X179781860Y-202520403D03*
X187462116Y-193617810D03*
%TD*%
D10*
%TO.C,D4*%
X70316557Y-139143659D03*
X73608519Y-138913463D03*
%TD*%
D13*
%TO.C,S17*%
X126678498Y-133050422D03*
X138228498Y-135250422D03*
%TD*%
D11*
%TO.C,D19*%
X146303499Y-197500423D03*
X149603499Y-197500423D03*
%TD*%
%TO.C,D14*%
X128303495Y-195000421D03*
X131603495Y-195000421D03*
%TD*%
D14*
%TO.C,S5*%
X90065014Y-175303836D03*
X101684757Y-177099407D03*
%TD*%
D13*
%TO.C,S22*%
X144678498Y-135550425D03*
X156228498Y-137750425D03*
%TD*%
D15*
%TO.C,S4*%
X67931680Y-128333682D03*
X79607009Y-129722636D03*
%TD*%
D11*
%TO.C,D9*%
X110303495Y-197500424D03*
X113603495Y-197500424D03*
%TD*%
%TO.C,D22*%
X146303495Y-146500424D03*
X149603495Y-146500424D03*
%TD*%
D13*
%TO.C,S25*%
X162678500Y-155050424D03*
X174228500Y-157250424D03*
%TD*%
D18*
%TO.C,S28*%
X165830062Y-190405518D03*
X176417104Y-195519915D03*
%TD*%
D13*
%TO.C,S13*%
X108678493Y-118550418D03*
X120228493Y-120750418D03*
%TD*%
D19*
%TO.C,J2*%
X178903504Y-133337934D03*
X178903504Y-134837934D03*
X178903504Y-136337934D03*
X178903504Y-137837934D03*
X178903504Y-139337934D03*
X178903504Y-140837934D03*
X178903504Y-142337934D03*
X178903504Y-143837934D03*
X178903504Y-145337934D03*
X178903504Y-146837934D03*
X178903504Y-148337934D03*
X178903504Y-149837934D03*
X178903504Y-151337934D03*
X178903504Y-152837934D03*
X178903504Y-154337934D03*
X178903504Y-155837934D03*
X178903504Y-157337934D03*
X178903504Y-158837934D03*
X178903504Y-160337934D03*
X178903504Y-161837934D03*
X178903504Y-163337934D03*
X178903504Y-164837934D03*
X178903504Y-166337934D03*
X178903504Y-167837934D03*
X178903504Y-169337934D03*
X178903504Y-170837934D03*
X178903504Y-172337934D03*
X178903504Y-173837934D03*
X178903504Y-175337934D03*
X178903504Y-176837934D03*
X178903504Y-178337934D03*
X178903504Y-179837934D03*
D20*
X197574304Y-169269974D03*
X197574304Y-143905894D03*
%TD*%
D13*
%TO.C,S18*%
X126678497Y-116050422D03*
X138228497Y-118250422D03*
%TD*%
D11*
%TO.C,D16*%
X128303504Y-161000422D03*
X131603504Y-161000422D03*
%TD*%
D21*
%TO.C,D29*%
X190077338Y-206588108D03*
X191727338Y-203730224D03*
%TD*%
D11*
%TO.C,D21*%
X146303498Y-163500424D03*
X149603498Y-163500424D03*
%TD*%
%TO.C,D27*%
X164303496Y-132000423D03*
X167603496Y-132000423D03*
%TD*%
D13*
%TO.C,S23*%
X144678492Y-118550424D03*
X156228492Y-120750424D03*
%TD*%
D11*
%TO.C,D17*%
X128303498Y-144000427D03*
X131603498Y-144000427D03*
%TD*%
D15*
%TO.C,S3*%
X69117548Y-145292276D03*
X80792877Y-146681230D03*
%TD*%
D13*
%TO.C,S20*%
X144678493Y-169550428D03*
X156228493Y-171750428D03*
%TD*%
D14*
%TO.C,S6*%
X89471718Y-158314193D03*
X101091461Y-160109764D03*
%TD*%
D22*
%TO.C,D28*%
X164565626Y-201403005D03*
X167753182Y-202257107D03*
%TD*%
D13*
%TO.C,S9*%
X108678497Y-186550422D03*
X120228497Y-188750422D03*
%TD*%
D11*
%TO.C,D13*%
X110303487Y-129500427D03*
X113603487Y-129500427D03*
%TD*%
M02*
