M48
; DRILL file {KiCad (6.0.11-0)} date Sunday, July 02, 2023 at 11:26:48 AM
; FORMAT={-:-/ absolute / inch / decimal}
; #@! TF.CreationDate,2023-07-02T11:26:48-05:00
; #@! TF.GenerationSoftware,Kicad,Pcbnew,(6.0.11-0)
; #@! TF.FileFunction,Plated,1,2,PTH
FMAT,2
INCH
; #@! TA.AperFunction,Plated,PTH,ViaDrill
T1C0.0157
; #@! TA.AperFunction,Plated,PTH,ComponentDrill
T2C0.0157
; #@! TA.AperFunction,Plated,PTH,ComponentDrill
T3C0.0354
; #@! TA.AperFunction,Plated,PTH,ComponentDrill
T4C0.0390
; #@! TA.AperFunction,Plated,PTH,ComponentDrill
T5C0.0390
; #@! TA.AperFunction,Plated,PTH,ComponentDrill
T6C0.0512
; #@! TA.AperFunction,Plated,PTH,ComponentDrill
T7C0.0591
; #@! TA.AperFunction,Plated,PTH,ComponentDrill
T8C0.0866
%
G90
G05
T1
X2.6436Y-5.1037
X2.6902Y-5.7714
X2.7369Y-6.439
X2.7836Y-7.1067
X3.4041Y-7.736
X3.4385Y-4.95
X3.4618Y-5.6189
X3.4852Y-6.2878
X3.5085Y-6.9567
X3.5203Y-7.8087
X3.5297Y-7.7604
X3.6746Y-7.7886
X4.2378Y-4.7243
X4.2378Y-5.3936
X4.2378Y-6.0629
X4.2378Y-7.4015
X4.2378Y-6.7322
X4.9464Y-5.3051
X4.9464Y-4.6259
X4.9464Y-5.9743
X4.9464Y-6.6436
X4.9464Y-7.3031
X5.6542Y-5.3902
X5.6551Y-4.7243
X5.6551Y-7.4015
X5.6551Y-6.0629
X5.6551Y-6.7322
X6.3638Y-5.4921
X6.3638Y-6.1614
X6.3638Y-6.8306
X6.3638Y-4.8228
X6.4549Y-7.581
X6.9534Y-6.122
X7.0026Y-6.0334
X7.0026Y-6.0743
X7.0026Y-6.122
X7.0518Y-6.0153
X7.0518Y-5.9743
X7.0609Y-7.8663
X7.101Y-5.9562
X7.101Y-5.9153
X7.1502Y-5.8971
X7.1502Y-5.8562
X7.1995Y-5.8381
X7.1995Y-5.7972
X7.2487Y-5.779
X7.2487Y-5.7381
X7.2979Y-5.6791
X7.2979Y-5.72
X7.3471Y-5.6609
X7.3471Y-5.62
X7.3963Y-5.6019
X7.3963Y-5.561
X7.4455Y-5.5428
X7.4455Y-5.5019
X7.4588Y-5.4429
X7.4785Y-5.3838
X7.4982Y-5.3247
X7.5179Y-5.2657
X7.5376Y-5.2066
T2
X2.9757Y-7.6941
X2.9915Y-7.6469
X2.9976Y-5.4288
X2.9979Y-7.7386
X3.0142Y-5.3819
X3.019Y-5.4737
X3.036Y-7.6247
X3.045Y-7.7543
X3.059Y-5.3605
X3.0658Y-5.4903
X3.0831Y-7.6405
X3.0895Y-7.7322
X3.1053Y-7.685
X3.1059Y-5.3771
X3.1107Y-5.4689
X3.1273Y-5.422
X6.8639Y-7.4
X6.883Y-7.3541
X6.883Y-7.446
X6.9289Y-7.3351
X6.9289Y-7.465
X6.9748Y-7.3541
X6.9748Y-7.446
X6.9938Y-7.4
X7.3836Y-4.8902
X7.4026Y-4.8443
X7.4026Y-4.9361
X7.4486Y-4.8252
X7.4486Y-4.9552
X7.4945Y-4.8443
X7.4945Y-4.9361
X7.5135Y-4.8902
T3
X7.3777Y-4.6193
X7.4564Y-4.6193
X7.5352Y-4.6193
T4
X6.9289Y-4.6344
X7.1061Y-4.6344
T5
X2.5158Y-5.4411
X2.5625Y-6.1088
X2.6092Y-6.7765
X2.6559Y-7.4441
X2.8151Y-5.4202
X2.8618Y-6.0879
X2.9085Y-6.7555
X2.9552Y-7.4232
X3.3021Y-5.2838
X3.3254Y-5.9526
X3.3488Y-6.6215
X3.3722Y-7.2904
X3.6019Y-5.2733
X3.6253Y-5.9422
X3.6486Y-6.6111
X3.672Y-7.2799
X4.0899Y-5.7248
X4.0899Y-6.3941
X4.0899Y-7.7327
X4.0899Y-5.0555
X4.0899Y-7.0634
X4.3899Y-5.7248
X4.3899Y-6.3941
X4.3899Y-7.7327
X4.3899Y-5.0555
X4.3899Y-7.0634
X4.7986Y-4.9571
X4.7986Y-6.2957
X4.7986Y-6.965
X4.7986Y-5.6264
X4.7986Y-7.6343
X5.0986Y-4.9571
X5.0986Y-6.2957
X5.0986Y-6.965
X5.0986Y-5.6264
X5.0986Y-7.6343
X5.5072Y-7.7327
X5.5072Y-6.3941
X5.5072Y-7.0634
X5.5072Y-5.7248
X5.5072Y-5.0555
X5.8072Y-7.7327
X5.8072Y-6.3941
X5.8072Y-7.0634
X5.8072Y-5.7248
X5.8072Y-5.0555
X6.2159Y-5.154
X6.2159Y-5.8233
X6.2159Y-6.4926
X6.2159Y-7.1618
X6.2291Y-7.8643
X6.5159Y-5.154
X6.5159Y-5.8233
X6.5159Y-6.4926
X6.5159Y-7.1618
X6.5189Y-7.942
X7.2731Y-8.1641
X7.4231Y-7.9043
T6
X6.8797Y-4.7324
X7.1557Y-4.7324
T7
X7.295Y-4.6193
X7.6179Y-4.6193
T8
X3.0405Y-7.6895
X3.0624Y-5.4254
X6.9289Y-7.4
X7.4486Y-4.8902
T0
M30
