%TF.GenerationSoftware,KiCad,Pcbnew,(6.0.11-0)*%
%TF.CreationDate,2023-06-20T20:04:49-05:00*%
%TF.ProjectId,typeboy,74797065-626f-4792-9e6b-696361645f70,v1.0.0*%
%TF.SameCoordinates,Original*%
%TF.FileFunction,Paste,Top*%
%TF.FilePolarity,Positive*%
%FSLAX46Y46*%
G04 Gerber Fmt 4.6, Leading zero omitted, Abs format (unit mm)*
G04 Created by KiCad (PCBNEW (6.0.11-0)) date 2023-06-20 20:04:49*
%MOMM*%
%LPD*%
G01*
G04 APERTURE LIST*
G04 Aperture macros list*
%AMRotRect*
0 Rectangle, with rotation*
0 The origin of the aperture is its center*
0 $1 length*
0 $2 width*
0 $3 Rotation angle, in degrees counterclockwise*
0 Add horizontal line*
21,1,$1,$2,0,0,$3*%
G04 Aperture macros list end*
%ADD10RotRect,0.900000X1.200000X4.000000*%
%ADD11R,0.900000X1.200000*%
%ADD12RotRect,0.900000X1.200000X2.000000*%
%ADD13R,2.600000X2.600000*%
%ADD14RotRect,2.600000X2.600000X2.000000*%
%ADD15RotRect,2.600000X2.600000X4.000000*%
%ADD16RotRect,1.300000X1.300000X349.000000*%
%ADD17RotRect,2.600000X2.600000X60.000000*%
%ADD18RotRect,2.600000X2.600000X345.000000*%
%ADD19R,2.500000X1.000000*%
%ADD20R,2.000000X4.500000*%
%ADD21RotRect,0.900000X1.200000X60.000000*%
%ADD22RotRect,0.900000X1.200000X345.000000*%
G04 APERTURE END LIST*
D10*
%TO.C,D2*%
X72688279Y-173060832D03*
X75980241Y-172830636D03*
%TD*%
D11*
%TO.C,D26*%
X164303498Y-149000430D03*
X167603498Y-149000430D03*
%TD*%
D12*
%TO.C,D8*%
X90291295Y-135221533D03*
X93589285Y-135106365D03*
%TD*%
%TO.C,D6*%
X91477877Y-169200820D03*
X94775867Y-169085652D03*
%TD*%
D13*
%TO.C,S15*%
X133228500Y-167050421D03*
X121678500Y-169250421D03*
%TD*%
D11*
%TO.C,D25*%
X164303496Y-166000428D03*
X167603496Y-166000428D03*
%TD*%
D13*
%TO.C,S16*%
X133228489Y-150050416D03*
X121678489Y-152250416D03*
%TD*%
D14*
%TO.C,S7*%
X95424441Y-141095966D03*
X83958256Y-143697715D03*
%TD*%
D11*
%TO.C,D23*%
X146303490Y-129500424D03*
X149603490Y-129500424D03*
%TD*%
%TO.C,D10*%
X110303499Y-180500426D03*
X113603499Y-180500426D03*
%TD*%
D13*
%TO.C,S21*%
X151228500Y-152550426D03*
X139678500Y-154750426D03*
%TD*%
%TO.C,S24*%
X169228497Y-172050430D03*
X157678497Y-174250430D03*
%TD*%
D11*
%TO.C,D20*%
X146303499Y-180500423D03*
X149603499Y-180500423D03*
%TD*%
%TO.C,D24*%
X164303494Y-183000424D03*
X167603494Y-183000424D03*
%TD*%
D13*
%TO.C,S19*%
X151228497Y-186550421D03*
X139678497Y-188750421D03*
%TD*%
D11*
%TO.C,D18*%
X128303491Y-127000419D03*
X131603491Y-127000419D03*
%TD*%
D15*
%TO.C,S1*%
X78023296Y-178752551D03*
X66654896Y-181752880D03*
%TD*%
D13*
%TO.C,S10*%
X115228490Y-169550431D03*
X103678490Y-171750431D03*
%TD*%
D11*
%TO.C,D11*%
X110303491Y-163500423D03*
X113603491Y-163500423D03*
%TD*%
D13*
%TO.C,S14*%
X133228497Y-184050422D03*
X121678497Y-186250422D03*
%TD*%
%TO.C,S11*%
X115228497Y-152550426D03*
X103678497Y-154750426D03*
%TD*%
D12*
%TO.C,D5*%
X92071165Y-186190471D03*
X95369155Y-186075303D03*
%TD*%
D14*
%TO.C,S8*%
X94831149Y-124106321D03*
X83364964Y-126708070D03*
%TD*%
D13*
%TO.C,S26*%
X169228500Y-138050419D03*
X157678500Y-140250419D03*
%TD*%
%TO.C,S27*%
X169228502Y-121050420D03*
X157678502Y-123250420D03*
%TD*%
D10*
%TO.C,D1*%
X73874136Y-190019429D03*
X77166098Y-189789233D03*
%TD*%
%TO.C,D3*%
X71502413Y-156102245D03*
X74794375Y-155872049D03*
%TD*%
D13*
%TO.C,S12*%
X115228492Y-135550421D03*
X103678492Y-137750421D03*
%TD*%
D12*
%TO.C,D7*%
X90884587Y-152211177D03*
X94182577Y-152096009D03*
%TD*%
D15*
%TO.C,S2*%
X76837444Y-161793953D03*
X65469044Y-164794282D03*
%TD*%
D16*
%TO.C,REF\u002A\u002A*%
X97001251Y-193035153D03*
X94449020Y-192539050D03*
X91896790Y-192042946D03*
X89344559Y-191546843D03*
X97232054Y-199446996D03*
X86728643Y-197405340D03*
%TD*%
D11*
%TO.C,D15*%
X128303496Y-178000420D03*
X131603496Y-178000420D03*
%TD*%
%TO.C,D12*%
X110303496Y-146500429D03*
X113603496Y-146500429D03*
%TD*%
D17*
%TO.C,S29*%
X183056860Y-196847937D03*
X179187116Y-207950530D03*
%TD*%
D10*
%TO.C,D4*%
X70316557Y-139143659D03*
X73608519Y-138913463D03*
%TD*%
D13*
%TO.C,S17*%
X133228498Y-133050422D03*
X121678498Y-135250422D03*
%TD*%
D11*
%TO.C,D19*%
X146303499Y-197500423D03*
X149603499Y-197500423D03*
%TD*%
%TO.C,D14*%
X128303495Y-195000421D03*
X131603495Y-195000421D03*
%TD*%
D14*
%TO.C,S5*%
X96611024Y-175075245D03*
X85144839Y-177676994D03*
%TD*%
D13*
%TO.C,S22*%
X151228498Y-135550425D03*
X139678498Y-137750425D03*
%TD*%
D15*
%TO.C,S4*%
X74465724Y-127876777D03*
X63097324Y-130877106D03*
%TD*%
D11*
%TO.C,D9*%
X110303495Y-197500424D03*
X113603495Y-197500424D03*
%TD*%
%TO.C,D22*%
X146303495Y-146500424D03*
X149603495Y-146500424D03*
%TD*%
D13*
%TO.C,S25*%
X169228500Y-155050424D03*
X157678500Y-157250424D03*
%TD*%
D18*
%TO.C,S28*%
X172156876Y-192100783D03*
X160431031Y-191236460D03*
%TD*%
D13*
%TO.C,S13*%
X115228493Y-118550418D03*
X103678493Y-120750418D03*
%TD*%
D19*
%TO.C,J2*%
X178903504Y-133337934D03*
X178903504Y-134837934D03*
X178903504Y-136337934D03*
X178903504Y-137837934D03*
X178903504Y-139337934D03*
X178903504Y-140837934D03*
X178903504Y-142337934D03*
X178903504Y-143837934D03*
X178903504Y-145337934D03*
X178903504Y-146837934D03*
X178903504Y-148337934D03*
X178903504Y-149837934D03*
X178903504Y-151337934D03*
X178903504Y-152837934D03*
X178903504Y-154337934D03*
X178903504Y-155837934D03*
X178903504Y-157337934D03*
X178903504Y-158837934D03*
X178903504Y-160337934D03*
X178903504Y-161837934D03*
X178903504Y-163337934D03*
X178903504Y-164837934D03*
X178903504Y-166337934D03*
X178903504Y-167837934D03*
X178903504Y-169337934D03*
X178903504Y-170837934D03*
X178903504Y-172337934D03*
X178903504Y-173837934D03*
X178903504Y-175337934D03*
X178903504Y-176837934D03*
X178903504Y-178337934D03*
X178903504Y-179837934D03*
D20*
X197574304Y-143905894D03*
X197574304Y-169269974D03*
%TD*%
D13*
%TO.C,S18*%
X133228497Y-116050422D03*
X121678497Y-118250422D03*
%TD*%
D11*
%TO.C,D16*%
X128303504Y-161000422D03*
X131603504Y-161000422D03*
%TD*%
D21*
%TO.C,D29*%
X190077338Y-206588108D03*
X191727338Y-203730224D03*
%TD*%
D11*
%TO.C,D21*%
X146303498Y-163500424D03*
X149603498Y-163500424D03*
%TD*%
%TO.C,D27*%
X164303496Y-132000423D03*
X167603496Y-132000423D03*
%TD*%
D13*
%TO.C,S23*%
X151228492Y-118550424D03*
X139678492Y-120750424D03*
%TD*%
D11*
%TO.C,D17*%
X128303498Y-144000427D03*
X131603498Y-144000427D03*
%TD*%
D15*
%TO.C,S3*%
X75651592Y-144835371D03*
X64283192Y-147835700D03*
%TD*%
D13*
%TO.C,S20*%
X151228493Y-169550428D03*
X139678493Y-171750428D03*
%TD*%
D14*
%TO.C,S6*%
X96017728Y-158085602D03*
X84551543Y-160687351D03*
%TD*%
D22*
%TO.C,D28*%
X164565626Y-201403005D03*
X167753182Y-202257107D03*
%TD*%
D13*
%TO.C,S9*%
X115228497Y-186550422D03*
X103678497Y-188750422D03*
%TD*%
D11*
%TO.C,D13*%
X110303487Y-129500427D03*
X113603487Y-129500427D03*
%TD*%
M02*
