%TF.GenerationSoftware,KiCad,Pcbnew,(6.0.11-0)*%
%TF.CreationDate,2023-06-20T20:04:49-05:00*%
%TF.ProjectId,typeboy,74797065-626f-4792-9e6b-696361645f70,v1.0.0*%
%TF.SameCoordinates,Original*%
%TF.FileFunction,Soldermask,Bot*%
%TF.FilePolarity,Negative*%
%FSLAX46Y46*%
G04 Gerber Fmt 4.6, Leading zero omitted, Abs format (unit mm)*
G04 Created by KiCad (PCBNEW (6.0.11-0)) date 2023-06-20 20:04:49*
%MOMM*%
%LPD*%
G01*
G04 APERTURE LIST*
G04 Aperture macros list*
%AMRoundRect*
0 Rectangle with rounded corners*
0 $1 Rounding radius*
0 $2 $3 $4 $5 $6 $7 $8 $9 X,Y pos of 4 corners*
0 Add a 4 corners polygon primitive as box body*
4,1,4,$2,$3,$4,$5,$6,$7,$8,$9,$2,$3,0*
0 Add four circle primitives for the rounded corners*
1,1,$1+$1,$2,$3*
1,1,$1+$1,$4,$5*
1,1,$1+$1,$6,$7*
1,1,$1+$1,$8,$9*
0 Add four rect primitives between the rounded corners*
20,1,$1+$1,$2,$3,$4,$5,0*
20,1,$1+$1,$4,$5,$6,$7,0*
20,1,$1+$1,$6,$7,$8,$9,0*
20,1,$1+$1,$8,$9,$2,$3,0*%
G04 Aperture macros list end*
%ADD10C,0.150000*%
%ADD11RoundRect,0.050000X-0.407050X-0.629929X0.490758X-0.567148X0.407050X0.629929X-0.490758X0.567148X0*%
%ADD12RoundRect,0.050000X-0.824821X-0.948848X0.948848X-0.824821X0.824821X0.948848X-0.948848X0.824821X0*%
%ADD13C,2.005000*%
%ADD14RoundRect,0.050000X-0.450000X-0.600000X0.450000X-0.600000X0.450000X0.600000X-0.450000X0.600000X0*%
%ADD15RoundRect,0.050000X-0.889000X-0.889000X0.889000X-0.889000X0.889000X0.889000X-0.889000X0.889000X0*%
%ADD16RoundRect,0.050000X-0.857433X-0.919484X0.919484X-0.857433X0.857433X0.919484X-0.919484X0.857433X0*%
%ADD17RoundRect,0.050000X-0.428786X-0.615339X0.470666X-0.583930X0.428786X0.615339X-0.470666X0.583930X0*%
%ADD18C,3.100000*%
%ADD19C,1.801800*%
%ADD20C,3.529000*%
%ADD21RoundRect,0.050000X-1.300000X-1.300000X1.300000X-1.300000X1.300000X1.300000X-1.300000X1.300000X0*%
%ADD22RoundRect,0.050000X-1.253839X-1.344577X1.344577X-1.253839X1.253839X1.344577X-1.344577X1.253839X0*%
%ADD23O,2.300000X3.600000*%
%ADD24RoundRect,0.050000X-0.750000X-1.250000X0.750000X-1.250000X0.750000X1.250000X-0.750000X1.250000X0*%
%ADD25O,1.600000X2.600000*%
%ADD26RoundRect,0.050000X-1.206150X-1.387517X1.387517X-1.206150X1.206150X1.387517X-1.387517X1.206150X0*%
%ADD27C,0.800000*%
%ADD28C,4.500000*%
%ADD29C,1.700000*%
%ADD30RoundRect,0.050000X-0.762084X-0.514032X0.514032X-0.762084X0.762084X0.514032X-0.514032X0.762084X0*%
%ADD31RoundRect,0.050000X0.475833X-1.775833X1.775833X0.475833X-0.475833X1.775833X-1.775833X-0.475833X0*%
%ADD32C,2.200000*%
%ADD33C,1.850000*%
%ADD34RoundRect,0.050000X-1.592168X-0.919239X0.919239X-1.592168X1.592168X0.919239X-0.919239X1.592168X0*%
%ADD35C,2.100000*%
%ADD36RoundRect,0.050000X-1.250000X0.500000X-1.250000X-0.500000X1.250000X-0.500000X1.250000X0.500000X0*%
%ADD37RoundRect,0.050000X-1.000000X2.250000X-1.000000X-2.250000X1.000000X-2.250000X1.000000X2.250000X0*%
%ADD38RoundRect,0.050000X0.294615X-0.689711X0.744615X0.089711X-0.294615X0.689711X-0.744615X-0.089711X0*%
%ADD39RoundRect,0.050000X0.325397X-1.214397X1.214397X0.325397X-0.325397X1.214397X-1.214397X-0.325397X0*%
%ADD40RoundRect,0.050000X-0.589958X-0.463087X0.279375X-0.696024X0.589958X0.463087X-0.279375X0.696024X0*%
%ADD41RoundRect,0.050000X-1.088798X-0.628618X0.628618X-1.088798X1.088798X0.628618X-0.628618X1.088798X0*%
G04 APERTURE END LIST*
D10*
X198999999Y-188250003D02*
X197750006Y-188250005D01*
X197750006Y-189000003D02*
X198999997Y-189000012D01*
X198999997Y-189000012D02*
X198999999Y-188250003D01*
X197750006Y-188250005D02*
X197750006Y-189000003D01*
X196000000Y-188999991D02*
X195999998Y-188250001D01*
X195999998Y-188250001D02*
X197250001Y-188250002D01*
X197250004Y-189000008D02*
X196000000Y-188999991D01*
X197250001Y-188250002D02*
X197250004Y-189000008D01*
D11*
%TO.C,D2*%
X72688279Y-173060832D03*
D12*
X70533541Y-173211506D03*
D11*
X75980241Y-172830636D03*
D13*
X78134979Y-172679962D03*
%TD*%
D14*
%TO.C,D26*%
X164303498Y-149000430D03*
D15*
X162143498Y-149000430D03*
D13*
X169763498Y-149000430D03*
D14*
X167603498Y-149000430D03*
%TD*%
D16*
%TO.C,D8*%
X88132611Y-135296916D03*
D17*
X90291295Y-135221533D03*
X93589285Y-135106365D03*
D13*
X95747969Y-135030982D03*
%TD*%
D16*
%TO.C,D6*%
X89319193Y-169276203D03*
D17*
X91477877Y-169200820D03*
D13*
X96934551Y-169010269D03*
D17*
X94775867Y-169085652D03*
%TD*%
D18*
%TO.C,S15*%
X124953500Y-169250421D03*
X129953500Y-167050421D03*
X129953500Y-167050421D03*
D19*
X124453500Y-173000421D03*
X135453500Y-173000421D03*
D20*
X129953500Y-173000421D03*
D18*
X134953500Y-169250421D03*
D21*
X126678500Y-167050421D03*
X138228500Y-169250421D03*
%TD*%
D14*
%TO.C,D25*%
X164303496Y-166000428D03*
D15*
X162143496Y-166000428D03*
D14*
X167603496Y-166000428D03*
D13*
X169763496Y-166000428D03*
%TD*%
D18*
%TO.C,S16*%
X134953489Y-152250416D03*
D19*
X124453489Y-156000416D03*
D18*
X129953489Y-150050416D03*
D19*
X135453489Y-156000416D03*
D18*
X129953489Y-150050416D03*
X124953489Y-152250416D03*
D20*
X129953489Y-156000416D03*
D21*
X126678489Y-150050416D03*
X138228489Y-152250416D03*
%TD*%
D18*
%TO.C,S7*%
X92151436Y-141210262D03*
D19*
X86862438Y-147348584D03*
D18*
X97225169Y-143234424D03*
D20*
X92359088Y-147156637D03*
D19*
X97855738Y-146964690D03*
D18*
X92151436Y-141210262D03*
X87231261Y-143583419D03*
D22*
X88878431Y-141324557D03*
X100498174Y-143120128D03*
%TD*%
D15*
%TO.C,D23*%
X144143490Y-129500424D03*
D14*
X146303490Y-129500424D03*
X149603490Y-129500424D03*
D13*
X151763490Y-129500424D03*
%TD*%
D15*
%TO.C,D10*%
X108143499Y-180500426D03*
D14*
X110303499Y-180500426D03*
X113603499Y-180500426D03*
D13*
X115763499Y-180500426D03*
%TD*%
D18*
%TO.C,S21*%
X142953500Y-154750426D03*
D20*
X147953500Y-158500426D03*
D19*
X153453500Y-158500426D03*
D18*
X147953500Y-152550426D03*
X152953500Y-154750426D03*
X147953500Y-152550426D03*
D19*
X142453500Y-158500426D03*
D21*
X144678500Y-152550426D03*
X156228500Y-154750426D03*
%TD*%
D19*
%TO.C,S24*%
X171453497Y-178000430D03*
D20*
X165953497Y-178000430D03*
D18*
X160953497Y-174250430D03*
D19*
X160453497Y-178000430D03*
D18*
X165953497Y-172050430D03*
X165953497Y-172050430D03*
X170953497Y-174250430D03*
D21*
X162678497Y-172050430D03*
X174228497Y-174250430D03*
%TD*%
D14*
%TO.C,D20*%
X146303499Y-180500423D03*
D15*
X144143499Y-180500423D03*
D13*
X151763499Y-180500423D03*
D14*
X149603499Y-180500423D03*
%TD*%
D23*
%TO.C,REF\u002A\u002A*%
X197753492Y-119350421D03*
X189553492Y-119350421D03*
D24*
X195653492Y-119350421D03*
D25*
X193653492Y-119350421D03*
X191653492Y-119350421D03*
%TD*%
D15*
%TO.C,D24*%
X162143494Y-183000424D03*
D14*
X164303494Y-183000424D03*
D13*
X169763494Y-183000424D03*
D14*
X167603494Y-183000424D03*
%TD*%
D18*
%TO.C,S19*%
X142953497Y-188750421D03*
D19*
X153453497Y-192500421D03*
X142453497Y-192500421D03*
D20*
X147953497Y-192500421D03*
D18*
X147953497Y-186550421D03*
X147953497Y-186550421D03*
X152953497Y-188750421D03*
D21*
X144678497Y-186550421D03*
X156228497Y-188750421D03*
%TD*%
D15*
%TO.C,D18*%
X126143491Y-127000419D03*
D14*
X128303491Y-127000419D03*
D13*
X133763491Y-127000419D03*
D14*
X131603491Y-127000419D03*
%TD*%
D19*
%TO.C,S1*%
X80657927Y-184532849D03*
D18*
X69921918Y-181524427D03*
D20*
X75171325Y-184916510D03*
D19*
X69684723Y-185300171D03*
D18*
X74756274Y-178981004D03*
X74756274Y-178981004D03*
X79897558Y-180826862D03*
D26*
X71489252Y-179209456D03*
X83164581Y-180598410D03*
%TD*%
D19*
%TO.C,S10*%
X106453490Y-175500431D03*
D18*
X111953490Y-169550431D03*
X111953490Y-169550431D03*
X116953490Y-171750431D03*
D20*
X111953490Y-175500431D03*
D19*
X117453490Y-175500431D03*
D18*
X106953490Y-171750431D03*
D21*
X108678490Y-169550431D03*
X120228490Y-171750431D03*
%TD*%
D14*
%TO.C,D11*%
X110303491Y-163500423D03*
D15*
X108143491Y-163500423D03*
D14*
X113603491Y-163500423D03*
D13*
X115763491Y-163500423D03*
%TD*%
D19*
%TO.C,S14*%
X124453497Y-190000422D03*
D18*
X129953497Y-184050422D03*
X124953497Y-186250422D03*
X134953497Y-186250422D03*
D20*
X129953497Y-190000422D03*
D19*
X135453497Y-190000422D03*
D18*
X129953497Y-184050422D03*
D21*
X126678497Y-184050422D03*
X138228497Y-186250422D03*
%TD*%
D19*
%TO.C,S11*%
X106453497Y-158500426D03*
D20*
X111953497Y-158500426D03*
D18*
X106953497Y-154750426D03*
X116953497Y-154750426D03*
D19*
X117453497Y-158500426D03*
D18*
X111953497Y-152550426D03*
X111953497Y-152550426D03*
D21*
X108678497Y-152550426D03*
X120228497Y-154750426D03*
%TD*%
D16*
%TO.C,D5*%
X89912481Y-186265854D03*
D17*
X92071165Y-186190471D03*
D13*
X97527839Y-185999920D03*
D17*
X95369155Y-186075303D03*
%TD*%
D18*
%TO.C,S8*%
X91558144Y-124220617D03*
X96631877Y-126244779D03*
D19*
X86269146Y-130358939D03*
D18*
X91558144Y-124220617D03*
X86637969Y-126593774D03*
D20*
X91765796Y-130166992D03*
D19*
X97262446Y-129975045D03*
D22*
X88285139Y-124334912D03*
X99904882Y-126130483D03*
%TD*%
D18*
%TO.C,S26*%
X160953500Y-140250419D03*
D19*
X171453500Y-144000419D03*
X160453500Y-144000419D03*
D18*
X165953500Y-138050419D03*
X170953500Y-140250419D03*
X165953500Y-138050419D03*
D20*
X165953500Y-144000419D03*
D21*
X162678500Y-138050419D03*
X174228500Y-140250419D03*
%TD*%
D18*
%TO.C,S27*%
X165953502Y-121050420D03*
D19*
X171453502Y-127000420D03*
D18*
X160953502Y-123250420D03*
D19*
X160453502Y-127000420D03*
D18*
X165953502Y-121050420D03*
D20*
X165953502Y-127000420D03*
D18*
X170953502Y-123250420D03*
D21*
X162678502Y-121050420D03*
X174228502Y-123250420D03*
%TD*%
D11*
%TO.C,D1*%
X73874136Y-190019429D03*
D12*
X71719398Y-190170103D03*
D11*
X77166098Y-189789233D03*
D13*
X79320836Y-189638559D03*
%TD*%
D27*
%TO.C,_1*%
X181420223Y-190217152D03*
D28*
X180253497Y-189050426D03*
D27*
X180253497Y-190700426D03*
X181420223Y-187883700D03*
X178603497Y-189050426D03*
X179086771Y-187883700D03*
X179086771Y-190217152D03*
X181903497Y-189050426D03*
X180253497Y-187400426D03*
%TD*%
D12*
%TO.C,D3*%
X69347675Y-156252919D03*
D11*
X71502413Y-156102245D03*
X74794375Y-155872049D03*
D13*
X76949113Y-155721375D03*
%TD*%
D19*
%TO.C,S12*%
X117453492Y-141500421D03*
D18*
X116953492Y-137750421D03*
X106953492Y-137750421D03*
D20*
X111953492Y-141500421D03*
D18*
X111953492Y-135550421D03*
X111953492Y-135550421D03*
D19*
X106453492Y-141500421D03*
D21*
X108678492Y-135550421D03*
X120228492Y-137750421D03*
%TD*%
D28*
%TO.C,_4*%
X82045650Y-138894545D03*
D27*
X82132004Y-140542284D03*
X83693389Y-138808191D03*
X80819461Y-137790480D03*
X83271839Y-139998610D03*
X83149715Y-137668356D03*
X81959296Y-137246806D03*
X80941585Y-140120734D03*
X80397911Y-138980899D03*
%TD*%
D17*
%TO.C,D7*%
X90884587Y-152211177D03*
D16*
X88725903Y-152286560D03*
D13*
X96341261Y-152020626D03*
D17*
X94182577Y-152096009D03*
%TD*%
D18*
%TO.C,S2*%
X68736066Y-164565829D03*
X73570422Y-162022406D03*
X73570422Y-162022406D03*
D19*
X68498871Y-168341573D03*
X79472075Y-167574251D03*
D18*
X78711706Y-163868264D03*
D20*
X73985473Y-167957912D03*
D26*
X70303400Y-162250858D03*
X81978729Y-163639812D03*
%TD*%
D29*
%TO.C,REF\u002A\u002A*%
X95633982Y-195876469D03*
X89744219Y-194731615D03*
X89744219Y-194731615D03*
X95633982Y-195876469D03*
D30*
X97001251Y-193035153D03*
X94449020Y-192539050D03*
X91896790Y-192042946D03*
X89344559Y-191546843D03*
X97232054Y-199446996D03*
X86728643Y-197405340D03*
%TD*%
D15*
%TO.C,D15*%
X126143496Y-178000420D03*
D14*
X128303496Y-178000420D03*
X131603496Y-178000420D03*
D13*
X133763496Y-178000420D03*
%TD*%
D15*
%TO.C,D12*%
X108143496Y-146500429D03*
D14*
X110303496Y-146500429D03*
D13*
X115763496Y-146500429D03*
D14*
X113603496Y-146500429D03*
%TD*%
D20*
%TO.C,S29*%
X186572211Y-202659170D03*
D18*
X181419360Y-199684170D03*
X181419360Y-199684170D03*
D19*
X183822211Y-207422310D03*
D18*
X180824616Y-205114297D03*
D19*
X189322211Y-197896030D03*
D18*
X185824616Y-196454043D03*
D31*
X179781860Y-202520403D03*
X187462116Y-193617810D03*
%TD*%
D12*
%TO.C,D4*%
X68161819Y-139294333D03*
D11*
X70316557Y-139143659D03*
X73608519Y-138913463D03*
D13*
X75763257Y-138762789D03*
%TD*%
D20*
%TO.C,S17*%
X129953498Y-139000422D03*
D19*
X135453498Y-139000422D03*
X124453498Y-139000422D03*
D18*
X134953498Y-135250422D03*
X129953498Y-133050422D03*
X129953498Y-133050422D03*
X124953498Y-135250422D03*
D21*
X126678498Y-133050422D03*
X138228498Y-135250422D03*
%TD*%
D14*
%TO.C,D19*%
X146303499Y-197500423D03*
D15*
X144143499Y-197500423D03*
D13*
X151763499Y-197500423D03*
D14*
X149603499Y-197500423D03*
%TD*%
%TO.C,D14*%
X128303495Y-195000421D03*
D15*
X126143495Y-195000421D03*
D13*
X133763495Y-195000421D03*
D14*
X131603495Y-195000421D03*
%TD*%
D32*
%TO.C,REF\u002A\u002A*%
X179003497Y-122222924D03*
X186013497Y-122222924D03*
D33*
X180253497Y-119732924D03*
X184753497Y-119732924D03*
%TD*%
D18*
%TO.C,S5*%
X93338019Y-175189541D03*
X93338019Y-175189541D03*
D19*
X88049021Y-181327863D03*
D18*
X98411752Y-177213703D03*
X88417844Y-177562698D03*
D20*
X93545671Y-181135916D03*
D19*
X99042321Y-180943969D03*
D22*
X90065014Y-175303836D03*
X101684757Y-177099407D03*
%TD*%
D18*
%TO.C,S22*%
X142953498Y-137750425D03*
D20*
X147953498Y-141500425D03*
D18*
X147953498Y-135550425D03*
X152953498Y-137750425D03*
D19*
X153453498Y-141500425D03*
D18*
X147953498Y-135550425D03*
D19*
X142453498Y-141500425D03*
D21*
X144678498Y-135550425D03*
X156228498Y-137750425D03*
%TD*%
D19*
%TO.C,S4*%
X66127151Y-134424397D03*
D18*
X66364346Y-130648653D03*
D19*
X77100355Y-133657075D03*
D18*
X71198702Y-128105230D03*
X76339986Y-129951088D03*
X71198702Y-128105230D03*
D20*
X71613753Y-134040736D03*
D26*
X67931680Y-128333682D03*
X79607009Y-129722636D03*
%TD*%
D15*
%TO.C,D9*%
X108143495Y-197500424D03*
D14*
X110303495Y-197500424D03*
D13*
X115763495Y-197500424D03*
D14*
X113603495Y-197500424D03*
%TD*%
D27*
%TO.C,_3*%
X82570536Y-195158576D03*
X81603137Y-198049828D03*
X82733310Y-197486344D03*
X83134020Y-196288749D03*
D28*
X81488039Y-196403847D03*
D27*
X79842058Y-196518945D03*
X81372941Y-194757866D03*
X80405542Y-197649118D03*
X80242768Y-195321350D03*
%TD*%
D14*
%TO.C,D22*%
X146303495Y-146500424D03*
D15*
X144143495Y-146500424D03*
D13*
X151763495Y-146500424D03*
D14*
X149603495Y-146500424D03*
%TD*%
D18*
%TO.C,S25*%
X165953500Y-155050424D03*
X165953500Y-155050424D03*
D19*
X171453500Y-161000424D03*
D18*
X160953500Y-157250424D03*
X170953500Y-157250424D03*
D20*
X165953500Y-161000424D03*
D19*
X160453500Y-161000424D03*
D21*
X162678500Y-155050424D03*
X174228500Y-157250424D03*
%TD*%
D18*
%TO.C,S28*%
X173253697Y-194672282D03*
X163594438Y-192084092D03*
X168993469Y-191253150D03*
D19*
X172766088Y-198423914D03*
X162140904Y-195576904D03*
D20*
X167453496Y-197000409D03*
D18*
X168993469Y-191253150D03*
D34*
X165830062Y-190405518D03*
X176417104Y-195519915D03*
%TD*%
D19*
%TO.C,S13*%
X117453493Y-124500418D03*
D20*
X111953493Y-124500418D03*
D18*
X111953493Y-118550418D03*
X106953493Y-120750418D03*
X116953493Y-120750418D03*
X111953493Y-118550418D03*
D19*
X106453493Y-124500418D03*
D21*
X108678493Y-118550418D03*
X120228493Y-120750418D03*
%TD*%
D35*
%TO.C,J2*%
X186700744Y-143655894D03*
X186700744Y-169519974D03*
D36*
X178903504Y-133337934D03*
X178903504Y-134837934D03*
X178903504Y-136337934D03*
X178903504Y-137837934D03*
X178903504Y-139337934D03*
X178903504Y-140837934D03*
X178903504Y-142337934D03*
X178903504Y-143837934D03*
X178903504Y-145337934D03*
X178903504Y-146837934D03*
X178903504Y-148337934D03*
X178903504Y-149837934D03*
X178903504Y-151337934D03*
X178903504Y-152837934D03*
X178903504Y-154337934D03*
X178903504Y-155837934D03*
X178903504Y-157337934D03*
X178903504Y-158837934D03*
X178903504Y-160337934D03*
X178903504Y-161837934D03*
X178903504Y-163337934D03*
X178903504Y-164837934D03*
X178903504Y-166337934D03*
X178903504Y-167837934D03*
X178903504Y-169337934D03*
X178903504Y-170837934D03*
X178903504Y-172337934D03*
X178903504Y-173837934D03*
X178903504Y-175337934D03*
X178903504Y-176837934D03*
X178903504Y-178337934D03*
X178903504Y-179837934D03*
D37*
X197574304Y-169269974D03*
X197574304Y-143905894D03*
%TD*%
D18*
%TO.C,S18*%
X134953497Y-118250422D03*
X129953497Y-116050422D03*
D19*
X124453497Y-122000422D03*
X135453497Y-122000422D03*
D18*
X129953497Y-116050422D03*
D20*
X129953497Y-122000422D03*
D18*
X124953497Y-118250422D03*
D21*
X126678497Y-116050422D03*
X138228497Y-118250422D03*
%TD*%
D14*
%TO.C,D16*%
X128303504Y-161000422D03*
D15*
X126143504Y-161000422D03*
D14*
X131603504Y-161000422D03*
D13*
X133763504Y-161000422D03*
%TD*%
D38*
%TO.C,D29*%
X190077338Y-206588108D03*
D39*
X188997338Y-208458723D03*
D13*
X192807338Y-201859609D03*
D38*
X191727338Y-203730224D03*
%TD*%
D15*
%TO.C,D21*%
X144143498Y-163500424D03*
D14*
X146303498Y-163500424D03*
X149603498Y-163500424D03*
D13*
X151763498Y-163500424D03*
%TD*%
D14*
%TO.C,D27*%
X164303496Y-132000423D03*
D15*
X162143496Y-132000423D03*
D14*
X167603496Y-132000423D03*
D13*
X169763496Y-132000423D03*
%TD*%
D19*
%TO.C,S23*%
X142453492Y-124500424D03*
D18*
X147953492Y-118550424D03*
X147953492Y-118550424D03*
X152953492Y-120750424D03*
D19*
X153453492Y-124500424D03*
D18*
X142953492Y-120750424D03*
D20*
X147953492Y-124500424D03*
D21*
X144678492Y-118550424D03*
X156228492Y-120750424D03*
%TD*%
D14*
%TO.C,D17*%
X128303498Y-144000427D03*
D15*
X126143498Y-144000427D03*
D14*
X131603498Y-144000427D03*
D13*
X133763498Y-144000427D03*
%TD*%
D27*
%TO.C,_2*%
X194620221Y-124133695D03*
D28*
X193453495Y-125300421D03*
D27*
X193453495Y-126950421D03*
X191803495Y-125300421D03*
X194620221Y-126467147D03*
X192286769Y-126467147D03*
X192286769Y-124133695D03*
X193453495Y-123650421D03*
X195103495Y-125300421D03*
%TD*%
D18*
%TO.C,S3*%
X72384570Y-145063824D03*
X67550214Y-147607247D03*
D20*
X72799621Y-150999330D03*
D19*
X78286223Y-150615669D03*
D18*
X72384570Y-145063824D03*
D19*
X67313019Y-151382991D03*
D18*
X77525854Y-146909682D03*
D26*
X69117548Y-145292276D03*
X80792877Y-146681230D03*
%TD*%
D19*
%TO.C,S20*%
X153453493Y-175500428D03*
D18*
X142953493Y-171750428D03*
D19*
X142453493Y-175500428D03*
D18*
X147953493Y-169550428D03*
D20*
X147953493Y-175500428D03*
D18*
X152953493Y-171750428D03*
X147953493Y-169550428D03*
D21*
X144678493Y-169550428D03*
X156228493Y-171750428D03*
%TD*%
D18*
%TO.C,S6*%
X92744723Y-158199898D03*
X97818456Y-160224060D03*
X87824548Y-160573055D03*
D19*
X98449025Y-163954326D03*
D20*
X92952375Y-164146273D03*
D19*
X87455725Y-164338220D03*
D18*
X92744723Y-158199898D03*
D22*
X89471718Y-158314193D03*
X101091461Y-160109764D03*
%TD*%
D40*
%TO.C,D28*%
X164565626Y-201403005D03*
D41*
X162479227Y-200843955D03*
D40*
X167753182Y-202257107D03*
D13*
X169839581Y-202816157D03*
%TD*%
D19*
%TO.C,S9*%
X106453497Y-192500422D03*
X117453497Y-192500422D03*
D18*
X106953497Y-188750422D03*
D20*
X111953497Y-192500422D03*
D18*
X116953497Y-188750422D03*
X111953497Y-186550422D03*
X111953497Y-186550422D03*
D21*
X108678497Y-186550422D03*
X120228497Y-188750422D03*
%TD*%
D14*
%TO.C,D13*%
X110303487Y-129500427D03*
D15*
X108143487Y-129500427D03*
D14*
X113603487Y-129500427D03*
D13*
X115763487Y-129500427D03*
%TD*%
G36*
X197238301Y-188250002D02*
G01*
X197246574Y-188253429D01*
X197250001Y-188261702D01*
X197250004Y-188988308D01*
X197246577Y-188996581D01*
X197238304Y-189000008D01*
X196011700Y-188999991D01*
X196003427Y-188996564D01*
X196000000Y-188988291D01*
X195999998Y-188261701D01*
X196003425Y-188253428D01*
X196011698Y-188250001D01*
X197238301Y-188250002D01*
G37*
G36*
X198996572Y-188253430D02*
G01*
X198999999Y-188261703D01*
X198999997Y-188988312D01*
X198996570Y-188996585D01*
X198988297Y-189000012D01*
X197761706Y-189000003D01*
X197753433Y-188996576D01*
X197750006Y-188988303D01*
X197750006Y-188261705D01*
X197753433Y-188253432D01*
X197761706Y-188250005D01*
X198988299Y-188250003D01*
X198996572Y-188253430D01*
G37*
M02*
