M48
; DRILL file {KiCad (6.0.11-0)} date Sunday, July 02, 2023 at 11:26:48 AM
; FORMAT={-:-/ absolute / inch / decimal}
; #@! TF.CreationDate,2023-07-02T11:26:48-05:00
; #@! TF.GenerationSoftware,Kicad,Pcbnew,(6.0.11-0)
; #@! TF.FileFunction,NonPlated,1,2,NPTH
FMAT,2
INCH
; #@! TA.AperFunction,NonPlated,NPTH,ComponentDrill
T1C0.0433
; #@! TA.AperFunction,NonPlated,NPTH,ComponentDrill
T2C0.0670
; #@! TA.AperFunction,NonPlated,NPTH,ComponentDrill
T3C0.0787
; #@! TA.AperFunction,NonPlated,NPTH,ComponentDrill
T4C0.1181
; #@! TA.AperFunction,NonPlated,NPTH,ComponentDrill
T5C0.1350
%
G90
G05
T1
X3.4553Y-7.7554
X3.4553Y-7.7554
X3.6021Y-7.784
X3.6021Y-7.784
T2
X2.4357Y-5.2494
X2.4824Y-5.9171
X2.5291Y-6.5847
X2.5758Y-7.2524
X2.8677Y-5.2192
X2.9144Y-5.8869
X2.9611Y-6.5545
X3.0078Y-7.2222
X3.2287Y-5.0893
X3.2521Y-5.7582
X3.2754Y-6.4271
X3.2988Y-7.096
X3.6615Y-5.0742
X3.6849Y-5.7431
X3.7082Y-6.412
X3.7316Y-7.0809
X4.0234Y-5.528
X4.0234Y-7.5359
X4.0234Y-6.8666
X4.0234Y-6.1973
X4.0234Y-4.8587
X4.4564Y-5.528
X4.4564Y-7.5359
X4.4564Y-6.8666
X4.4564Y-6.1973
X4.4564Y-4.8587
X4.732Y-5.4296
X4.732Y-6.7681
X4.732Y-4.7603
X4.732Y-6.0989
X4.732Y-7.4374
X5.1651Y-5.4296
X5.1651Y-6.7681
X5.1651Y-4.7603
X5.1651Y-6.0989
X5.1651Y-7.4374
X5.4407Y-6.8666
X5.4407Y-7.5359
X5.4407Y-5.528
X5.4407Y-6.1973
X5.4407Y-4.8587
X5.8738Y-6.8666
X5.8738Y-7.5359
X5.8738Y-5.528
X5.8738Y-6.1973
X5.8738Y-4.8587
X6.1494Y-4.9571
X6.1494Y-6.2957
X6.1494Y-6.965
X6.1494Y-5.6264
X6.2158Y-7.657
X6.5824Y-4.9571
X6.5824Y-6.2957
X6.5824Y-6.965
X6.5824Y-5.6264
X6.6341Y-7.7691
X7.0694Y-8.1233
X7.2859Y-7.7483
T3
X7.1827Y-5.6129
X7.1827Y-6.6311
T4
X2.4451Y-5.1008
X2.4918Y-5.7684
X2.5384Y-6.4361
X2.5851Y-7.1037
X2.6354Y-5.0006
X2.6354Y-5.0006
X2.6821Y-5.6683
X2.6821Y-5.6683
X2.7288Y-6.3359
X2.7288Y-6.3359
X2.7755Y-7.0036
X2.7755Y-7.0036
X2.8378Y-5.0733
X2.8845Y-5.741
X2.9312Y-6.4086
X2.9779Y-7.0763
X3.2432Y-4.9411
X3.2666Y-5.61
X3.29Y-6.2789
X3.3133Y-6.9478
X3.4369Y-4.8477
X3.4369Y-4.8477
X3.4603Y-5.5166
X3.4603Y-5.5166
X3.4837Y-6.1854
X3.4837Y-6.1854
X3.507Y-6.8543
X3.507Y-6.8543
X3.6367Y-4.9274
X3.6601Y-5.5963
X3.6834Y-6.2651
X3.7068Y-6.934
X4.0431Y-5.3804
X4.0431Y-7.3882
X4.0431Y-6.7189
X4.0431Y-6.0496
X4.0431Y-4.7111
X4.2399Y-5.2937
X4.2399Y-5.2937
X4.2399Y-7.3016
X4.2399Y-7.3016
X4.2399Y-6.6323
X4.2399Y-6.6323
X4.2399Y-5.963
X4.2399Y-5.963
X4.2399Y-4.6244
X4.2399Y-4.6244
X4.4368Y-5.3804
X4.4368Y-7.3882
X4.4368Y-6.7189
X4.4368Y-6.0496
X4.4368Y-4.7111
X4.7517Y-5.2819
X4.7517Y-6.6205
X4.7517Y-4.6126
X4.7517Y-5.9512
X4.7517Y-7.2898
X4.9486Y-5.1953
X4.9486Y-5.1953
X4.9486Y-6.5339
X4.9486Y-6.5339
X4.9486Y-4.526
X4.9486Y-4.526
X4.9486Y-5.8646
X4.9486Y-5.8646
X4.9486Y-7.2032
X4.9486Y-7.2032
X5.1454Y-5.2819
X5.1454Y-6.6205
X5.1454Y-4.6126
X5.1454Y-5.9512
X5.1454Y-7.2898
X5.4604Y-6.7189
X5.4604Y-7.3882
X5.4604Y-5.3804
X5.4604Y-6.0496
X5.4604Y-4.7111
X5.6572Y-6.6323
X5.6572Y-6.6323
X5.6572Y-7.3016
X5.6572Y-7.3016
X5.6572Y-5.2937
X5.6572Y-5.2937
X5.6572Y-5.963
X5.6572Y-5.963
X5.6572Y-4.6244
X5.6572Y-4.6244
X5.8541Y-6.7189
X5.8541Y-7.3882
X5.8541Y-5.3804
X5.8541Y-6.0496
X5.8541Y-4.7111
X6.169Y-4.8095
X6.169Y-6.1481
X6.169Y-6.8174
X6.169Y-5.4788
X6.273Y-7.5195
X6.3659Y-4.7229
X6.3659Y-4.7229
X6.3659Y-6.0615
X6.3659Y-6.0615
X6.3659Y-6.7307
X6.3659Y-6.7307
X6.3659Y-5.3922
X6.3659Y-5.3922
X6.4856Y-7.4868
X6.4856Y-7.4868
X6.5627Y-4.8095
X6.5627Y-6.1481
X6.5627Y-6.8174
X6.5627Y-5.4788
X6.6533Y-7.6214
X6.9514Y-8.0325
X6.9748Y-7.8187
X6.9748Y-7.8187
X7.1482Y-7.6915
T5
X2.6517Y-5.2343
X2.6984Y-5.902
X2.7451Y-6.5696
X2.7918Y-7.2373
X3.4451Y-5.0818
X3.4685Y-5.7507
X3.4918Y-6.4196
X3.5152Y-7.0884
X4.2399Y-5.528
X4.2399Y-7.5359
X4.2399Y-6.8666
X4.2399Y-6.1973
X4.2399Y-4.8587
X4.9486Y-5.4296
X4.9486Y-6.7681
X4.9486Y-4.7603
X4.9486Y-6.0989
X4.9486Y-7.4374
X5.6572Y-6.8666
X5.6572Y-7.5359
X5.6572Y-5.528
X5.6572Y-6.1973
X5.6572Y-4.8587
X6.3659Y-4.9571
X6.3659Y-6.2957
X6.3659Y-6.965
X6.3659Y-5.6264
X6.425Y-7.713
X7.1777Y-7.9358
T0
M30
