%TF.GenerationSoftware,KiCad,Pcbnew,(6.0.11-0)*%
%TF.CreationDate,2023-07-02T11:26:45-05:00*%
%TF.ProjectId,typeboy,74797065-626f-4792-9e6b-696361645f70,v1.0.0*%
%TF.SameCoordinates,Original*%
%TF.FileFunction,Legend,Bot*%
%TF.FilePolarity,Positive*%
%FSLAX46Y46*%
G04 Gerber Fmt 4.6, Leading zero omitted, Abs format (unit mm)*
G04 Created by KiCad (PCBNEW (6.0.11-0)) date 2023-07-02 11:26:45*
%MOMM*%
%LPD*%
G01*
G04 APERTURE LIST*
%ADD10C,0.100000*%
G04 APERTURE END LIST*
D10*
%TO.C,D27*%
X161343765Y-130910944D02*
X161943765Y-130510944D01*
X161943765Y-130910944D02*
X162443765Y-130910944D01*
X161343765Y-130910944D02*
X161343765Y-131460944D01*
X160943765Y-130910944D02*
X161343765Y-130910944D01*
X161943765Y-130510944D02*
X161943765Y-131310944D01*
X161343765Y-130910944D02*
X161343765Y-130360944D01*
X161943765Y-131310944D02*
X161343765Y-130910944D01*
%TO.C,D17*%
X125343771Y-142910938D02*
X125943771Y-142510938D01*
X125343771Y-142910938D02*
X125343771Y-143460938D01*
X124943771Y-142910938D02*
X125343771Y-142910938D01*
X125943771Y-143310938D02*
X125343771Y-142910938D01*
X125943771Y-142910938D02*
X126443771Y-142910938D01*
X125343771Y-142910938D02*
X125343771Y-142360938D01*
X125943771Y-142510938D02*
X125943771Y-143310938D01*
%TO.C,D15*%
X125343769Y-176910943D02*
X125343769Y-177460943D01*
X125943769Y-177310943D02*
X125343769Y-176910943D01*
X125943769Y-176510943D02*
X125943769Y-177310943D01*
X124943769Y-176910943D02*
X125343769Y-176910943D01*
X125343769Y-176910943D02*
X125943769Y-176510943D01*
X125943769Y-176910943D02*
X126443769Y-176910943D01*
X125343769Y-176910943D02*
X125343769Y-176360943D01*
%TO.C,D19*%
X143343767Y-196410939D02*
X143343767Y-195860939D01*
X143343767Y-196410939D02*
X143943767Y-196010939D01*
X143343767Y-196410939D02*
X143343767Y-196960939D01*
X143943767Y-196410939D02*
X144443767Y-196410939D01*
X143943767Y-196010939D02*
X143943767Y-196810939D01*
X143943767Y-196810939D02*
X143343767Y-196410939D01*
X142943767Y-196410939D02*
X143343767Y-196410939D01*
%TO.C,D16*%
X125943769Y-160310942D02*
X125343769Y-159910942D01*
X125343769Y-159910942D02*
X125343769Y-160460942D01*
X125343769Y-159910942D02*
X125943769Y-159510942D01*
X124943769Y-159910942D02*
X125343769Y-159910942D01*
X125943769Y-159510942D02*
X125943769Y-160310942D01*
X125943769Y-159910942D02*
X126443769Y-159910942D01*
X125343769Y-159910942D02*
X125343769Y-159360942D01*
%TO.C,D8*%
X86931017Y-134100639D02*
X87330773Y-134086679D01*
X87916448Y-133665983D02*
X87944368Y-134465495D01*
X87330773Y-134086679D02*
X87311578Y-133537014D01*
X87930408Y-134065739D02*
X88430103Y-134048289D01*
X87330773Y-134086679D02*
X87349968Y-134636344D01*
X87944368Y-134465495D02*
X87330773Y-134086679D01*
X87330773Y-134086679D02*
X87916448Y-133665983D01*
%TO.C,D3*%
X68140499Y-154949986D02*
X68539525Y-154922084D01*
X68539525Y-154922084D02*
X69110160Y-154481204D01*
X69138063Y-154880230D02*
X69636845Y-154845352D01*
X68539525Y-154922084D02*
X68501159Y-154373424D01*
X69110160Y-154481204D02*
X69165966Y-155279256D01*
X69165966Y-155279256D02*
X68539525Y-154922084D01*
X68539525Y-154922084D02*
X68577891Y-155470744D01*
%TO.C,D4*%
X66954640Y-137991400D02*
X67353666Y-137963498D01*
X67353666Y-137963498D02*
X67315300Y-137414838D01*
X67924301Y-137522618D02*
X67980107Y-138320670D01*
X67952204Y-137921644D02*
X68450986Y-137886766D01*
X67353666Y-137963498D02*
X67392032Y-138512158D01*
X67980107Y-138320670D02*
X67353666Y-137963498D01*
X67353666Y-137963498D02*
X67924301Y-137522618D01*
%TO.C,D26*%
X161943767Y-147510947D02*
X161943767Y-148310947D01*
X160943767Y-147910947D02*
X161343767Y-147910947D01*
X161343767Y-147910947D02*
X161343767Y-147360947D01*
X161343767Y-147910947D02*
X161343767Y-148460947D01*
X161943767Y-148310947D02*
X161343767Y-147910947D01*
X161943767Y-147910947D02*
X162443767Y-147910947D01*
X161343767Y-147910947D02*
X161943767Y-147510947D01*
%TO.C,D29*%
X186421204Y-203653176D02*
X187114024Y-204053176D01*
X186467614Y-204372791D02*
X186943928Y-204647791D01*
X186467614Y-204372791D02*
X186421204Y-203653176D01*
X186767614Y-203853176D02*
X187017614Y-203420163D01*
X187114024Y-204053176D02*
X186467614Y-204372791D01*
X186267614Y-204719201D02*
X186467614Y-204372791D01*
X186467614Y-204372791D02*
X185991300Y-204097791D01*
%TO.C,D28*%
X162037627Y-201191645D02*
X161561599Y-200649983D01*
X161175229Y-200546456D02*
X161561599Y-200649983D01*
X161561599Y-200649983D02*
X161703949Y-200118724D01*
X161561599Y-200649983D02*
X161419248Y-201181243D01*
X161561599Y-200649983D02*
X162244682Y-200418904D01*
X162141154Y-200805275D02*
X162624117Y-200934684D01*
X162244682Y-200418904D02*
X162037627Y-201191645D01*
%TO.C,D24*%
X161943773Y-182310941D02*
X161343773Y-181910941D01*
X161943773Y-181510941D02*
X161943773Y-182310941D01*
X161343773Y-181910941D02*
X161943773Y-181510941D01*
X161343773Y-181910941D02*
X161343773Y-182460941D01*
X161343773Y-181910941D02*
X161343773Y-181360941D01*
X161943773Y-181910941D02*
X162443773Y-181910941D01*
X160943773Y-181910941D02*
X161343773Y-181910941D01*
%TO.C,D2*%
X70351828Y-172237841D02*
X69725387Y-171880669D01*
X69725387Y-171880669D02*
X69763753Y-172429329D01*
X70296022Y-171439789D02*
X70351828Y-172237841D01*
X69725387Y-171880669D02*
X70296022Y-171439789D01*
X69725387Y-171880669D02*
X69687021Y-171332009D01*
X70323925Y-171838815D02*
X70822707Y-171803937D01*
X69326361Y-171908571D02*
X69725387Y-171880669D01*
%TO.C,D20*%
X143343769Y-179410938D02*
X143343769Y-178860938D01*
X143943769Y-179010938D02*
X143943769Y-179810938D01*
X143943769Y-179810938D02*
X143343769Y-179410938D01*
X143943769Y-179410938D02*
X144443769Y-179410938D01*
X142943769Y-179410938D02*
X143343769Y-179410938D01*
X143343769Y-179410938D02*
X143943769Y-179010938D01*
X143343769Y-179410938D02*
X143343769Y-179960938D01*
%TO.C,D12*%
X107943759Y-145410945D02*
X108443759Y-145410945D01*
X107343759Y-145410945D02*
X107343759Y-144860945D01*
X106943759Y-145410945D02*
X107343759Y-145410945D01*
X107343759Y-145410945D02*
X107343759Y-145960945D01*
X107943759Y-145810945D02*
X107343759Y-145410945D01*
X107943759Y-145010945D02*
X107943759Y-145810945D01*
X107343759Y-145410945D02*
X107943759Y-145010945D01*
%TO.C,D21*%
X143343768Y-162410943D02*
X143943768Y-162010943D01*
X143343768Y-162410943D02*
X143343768Y-162960943D01*
X143343768Y-162410943D02*
X143343768Y-161860943D01*
X143943768Y-162810943D02*
X143343768Y-162410943D01*
X143943768Y-162010943D02*
X143943768Y-162810943D01*
X142943768Y-162410943D02*
X143343768Y-162410943D01*
X143943768Y-162410943D02*
X144443768Y-162410943D01*
%TO.C,D14*%
X125343773Y-193910948D02*
X125343773Y-193360948D01*
X125943773Y-193510948D02*
X125943773Y-194310948D01*
X125943773Y-194310948D02*
X125343773Y-193910948D01*
X125943773Y-193910948D02*
X126443773Y-193910948D01*
X124943773Y-193910948D02*
X125343773Y-193910948D01*
X125343773Y-193910948D02*
X125343773Y-194460948D01*
X125343773Y-193910948D02*
X125943773Y-193510948D01*
%TO.C,D1*%
X71537684Y-189196428D02*
X70911243Y-188839256D01*
X70911243Y-188839256D02*
X70949609Y-189387916D01*
X71509781Y-188797402D02*
X72008563Y-188762524D01*
X71481878Y-188398376D02*
X71537684Y-189196428D01*
X70911243Y-188839256D02*
X70872877Y-188290596D01*
X70911243Y-188839256D02*
X71481878Y-188398376D01*
X70512217Y-188867158D02*
X70911243Y-188839256D01*
%TO.C,D22*%
X143343770Y-145410947D02*
X143343770Y-144860947D01*
X142943770Y-145410947D02*
X143343770Y-145410947D01*
X143943770Y-145010947D02*
X143943770Y-145810947D01*
X143943770Y-145410947D02*
X144443770Y-145410947D01*
X143343770Y-145410947D02*
X143343770Y-145960947D01*
X143343770Y-145410947D02*
X143943770Y-145010947D01*
X143943770Y-145810947D02*
X143343770Y-145410947D01*
%TO.C,D9*%
X107343764Y-196410940D02*
X107343764Y-195860940D01*
X107943764Y-196010940D02*
X107943764Y-196810940D01*
X107943764Y-196410940D02*
X108443764Y-196410940D01*
X107343764Y-196410940D02*
X107343764Y-196960940D01*
X107343764Y-196410940D02*
X107943764Y-196010940D01*
X106943764Y-196410940D02*
X107343764Y-196410940D01*
X107943764Y-196810940D02*
X107343764Y-196410940D01*
%TO.C,D7*%
X88509750Y-150655625D02*
X88537670Y-151455137D01*
X87924075Y-151076321D02*
X87904880Y-150526656D01*
X88523710Y-151055381D02*
X89023405Y-151037931D01*
X87924075Y-151076321D02*
X88509750Y-150655625D01*
X88537670Y-151455137D02*
X87924075Y-151076321D01*
X87924075Y-151076321D02*
X87943270Y-151625986D01*
X87524319Y-151090281D02*
X87924075Y-151076321D01*
%TO.C,D11*%
X107343764Y-162410948D02*
X107343764Y-161860948D01*
X106943764Y-162410948D02*
X107343764Y-162410948D01*
X107343764Y-162410948D02*
X107343764Y-162960948D01*
X107943764Y-162410948D02*
X108443764Y-162410948D01*
X107343764Y-162410948D02*
X107943764Y-162010948D01*
X107943764Y-162010948D02*
X107943764Y-162810948D01*
X107943764Y-162810948D02*
X107343764Y-162410948D01*
%TO.C,D5*%
X89110644Y-185055612D02*
X89696319Y-184634916D01*
X89710279Y-185034672D02*
X90209974Y-185017222D01*
X88710888Y-185069572D02*
X89110644Y-185055612D01*
X89724239Y-185434428D02*
X89110644Y-185055612D01*
X89110644Y-185055612D02*
X89091449Y-184505947D01*
X89696319Y-184634916D02*
X89724239Y-185434428D01*
X89110644Y-185055612D02*
X89129839Y-185605277D01*
%TO.C,D18*%
X125943767Y-125910939D02*
X126443767Y-125910939D01*
X125343767Y-125910939D02*
X125343767Y-126460939D01*
X125343767Y-125910939D02*
X125343767Y-125360939D01*
X125943767Y-126310939D02*
X125343767Y-125910939D01*
X124943767Y-125910939D02*
X125343767Y-125910939D01*
X125343767Y-125910939D02*
X125943767Y-125510939D01*
X125943767Y-125510939D02*
X125943767Y-126310939D01*
%TO.C,D25*%
X161943770Y-164510936D02*
X161943770Y-165310936D01*
X161943770Y-164910936D02*
X162443770Y-164910936D01*
X161943770Y-165310936D02*
X161343770Y-164910936D01*
X160943770Y-164910936D02*
X161343770Y-164910936D01*
X161343770Y-164910936D02*
X161343770Y-164360936D01*
X161343770Y-164910936D02*
X161343770Y-165460936D01*
X161343770Y-164910936D02*
X161943770Y-164510936D01*
%TO.C,D13*%
X107343768Y-128410940D02*
X107943768Y-128010940D01*
X107943768Y-128410940D02*
X108443768Y-128410940D01*
X107943768Y-128010940D02*
X107943768Y-128810940D01*
X107343768Y-128410940D02*
X107343768Y-128960940D01*
X107343768Y-128410940D02*
X107343768Y-127860940D01*
X106943768Y-128410940D02*
X107343768Y-128410940D01*
X107943768Y-128810940D02*
X107343768Y-128410940D01*
%TO.C,D10*%
X107943768Y-179810941D02*
X107343768Y-179410941D01*
X107943768Y-179410941D02*
X108443768Y-179410941D01*
X107943768Y-179010941D02*
X107943768Y-179810941D01*
X107343768Y-179410941D02*
X107943768Y-179010941D01*
X107343768Y-179410941D02*
X107343768Y-178860941D01*
X106943768Y-179410941D02*
X107343768Y-179410941D01*
X107343768Y-179410941D02*
X107343768Y-179960941D01*
%TO.C,D23*%
X143943772Y-128410944D02*
X144443772Y-128410944D01*
X143943772Y-128810944D02*
X143343772Y-128410944D01*
X143343772Y-128410944D02*
X143943772Y-128010944D01*
X143343772Y-128410944D02*
X143343772Y-127860944D01*
X143943772Y-128010944D02*
X143943772Y-128810944D01*
X142943772Y-128410944D02*
X143343772Y-128410944D01*
X143343772Y-128410944D02*
X143343772Y-128960944D01*
%TO.C,D6*%
X88517356Y-168065966D02*
X88536551Y-168615631D01*
X88517356Y-168065966D02*
X89103031Y-167645270D01*
X89116991Y-168045026D02*
X89616686Y-168027576D01*
X89130951Y-168444782D02*
X88517356Y-168065966D01*
X88117600Y-168079926D02*
X88517356Y-168065966D01*
X88517356Y-168065966D02*
X88498161Y-167516301D01*
X89103031Y-167645270D02*
X89130951Y-168444782D01*
%TD*%
M02*
