M48
; DRILL file {KiCad (6.0.11-0)} date Tuesday, June 20, 2023 at 08:04:51 PM
; FORMAT={-:-/ absolute / inch / decimal}
; #@! TF.CreationDate,2023-06-20T20:04:51-05:00
; #@! TF.GenerationSoftware,Kicad,Pcbnew,(6.0.11-0)
; #@! TF.FileFunction,NonPlated,1,2,NPTH
FMAT,2
INCH
; #@! TA.AperFunction,NonPlated,NPTH,ComponentDrill
T1C0.0630
; #@! TA.AperFunction,NonPlated,NPTH,ComponentDrill
T2C0.0670
; #@! TA.AperFunction,NonPlated,NPTH,ComponentDrill
T3C0.0787
; #@! TA.AperFunction,NonPlated,NPTH,ComponentDrill
T4C0.1181
; #@! TA.AperFunction,NonPlated,NPTH,ComponentDrill
T5C0.1350
%
G90
G05
T1
X3.5332Y-7.6666
X3.5332Y-7.6666
X3.7651Y-7.7117
X3.7651Y-7.7117
T2
X2.6034Y-5.2923
X2.6501Y-5.96
X2.6968Y-6.6276
X2.7435Y-7.2953
X3.0354Y-5.2621
X3.0821Y-5.9298
X3.1288Y-6.5974
X3.1755Y-7.2651
X3.3964Y-5.1322
X3.4198Y-5.8011
X3.4431Y-6.47
X3.4665Y-7.1389
X3.8292Y-5.1171
X3.8526Y-5.786
X3.8759Y-6.4549
X3.8993Y-7.1238
X4.1911Y-6.9095
X4.1911Y-5.5709
X4.1911Y-4.9016
X4.1911Y-6.2402
X4.1911Y-7.5788
X4.6242Y-6.9095
X4.6242Y-5.5709
X4.6242Y-4.9016
X4.6242Y-6.2402
X4.6242Y-7.5788
X4.8997Y-6.1417
X4.8997Y-4.8032
X4.8997Y-7.4803
X4.8997Y-5.4725
X4.8997Y-6.811
X5.3328Y-6.1417
X5.3328Y-4.8032
X5.3328Y-7.4803
X5.3328Y-5.4725
X5.3328Y-6.811
X5.6084Y-4.9016
X5.6084Y-6.9095
X5.6084Y-7.5788
X5.6084Y-5.5709
X5.6084Y-6.2402
X6.0415Y-4.9016
X6.0415Y-6.9095
X6.0415Y-7.5788
X6.0415Y-5.5709
X6.0415Y-6.2402
X6.3171Y-7.0079
X6.3171Y-5.6693
X6.3171Y-6.3386
X6.3171Y-5.0
X6.3835Y-7.6999
X6.7501Y-7.0079
X6.7501Y-5.6693
X6.7501Y-6.3386
X6.7501Y-5.0
X6.8018Y-7.812
X7.2371Y-8.1662
X7.4536Y-7.7912
T3
X7.3504Y-5.6557
X7.3504Y-6.674
T4
X2.6128Y-5.1436
X2.6595Y-5.8113
X2.7061Y-6.479
X2.7528Y-7.1466
X2.8031Y-5.0435
X2.8031Y-5.0435
X2.8498Y-5.7112
X2.8498Y-5.7112
X2.8965Y-6.3788
X2.8965Y-6.3788
X2.9432Y-7.0465
X2.9432Y-7.0465
X3.0055Y-5.1162
X3.0522Y-5.7838
X3.0989Y-6.4515
X3.1456Y-7.1192
X3.4109Y-4.984
X3.4343Y-5.6529
X3.4577Y-6.3218
X3.481Y-6.9907
X3.6047Y-4.8906
X3.6047Y-4.8906
X3.628Y-5.5595
X3.628Y-5.5595
X3.6514Y-6.2283
X3.6514Y-6.2283
X3.6747Y-6.8972
X3.6747Y-6.8972
X3.8044Y-4.9703
X3.8278Y-5.6392
X3.8511Y-6.308
X3.8745Y-6.9769
X4.2108Y-6.7618
X4.2108Y-5.4232
X4.2108Y-4.754
X4.2108Y-6.0925
X4.2108Y-7.4311
X4.4076Y-6.6752
X4.4076Y-6.6752
X4.4076Y-5.3366
X4.4076Y-5.3366
X4.4076Y-4.6673
X4.4076Y-4.6673
X4.4076Y-6.0059
X4.4076Y-6.0059
X4.4076Y-7.3445
X4.4076Y-7.3445
X4.6045Y-6.7618
X4.6045Y-5.4232
X4.6045Y-4.754
X4.6045Y-6.0925
X4.6045Y-7.4311
X4.9194Y-5.9941
X4.9194Y-4.6555
X4.9194Y-7.3327
X4.9194Y-5.3248
X4.9194Y-6.6634
X5.1163Y-5.9075
X5.1163Y-5.9075
X5.1163Y-4.5689
X5.1163Y-4.5689
X5.1163Y-7.2461
X5.1163Y-7.2461
X5.1163Y-5.2382
X5.1163Y-5.2382
X5.1163Y-6.5768
X5.1163Y-6.5768
X5.3131Y-5.9941
X5.3131Y-4.6555
X5.3131Y-7.3327
X5.3131Y-5.3248
X5.3131Y-6.6634
X5.6281Y-4.754
X5.6281Y-6.7618
X5.6281Y-7.4311
X5.6281Y-5.4232
X5.6281Y-6.0925
X5.8249Y-4.6673
X5.8249Y-4.6673
X5.8249Y-6.6752
X5.8249Y-6.6752
X5.8249Y-7.3445
X5.8249Y-7.3445
X5.8249Y-5.3366
X5.8249Y-5.3366
X5.8249Y-6.0059
X5.8249Y-6.0059
X6.0218Y-4.754
X6.0218Y-6.7618
X6.0218Y-7.4311
X6.0218Y-5.4232
X6.0218Y-6.0925
X6.3368Y-6.8603
X6.3368Y-5.5217
X6.3368Y-6.191
X6.3368Y-4.8524
X6.4407Y-7.5624
X6.5336Y-6.7736
X6.5336Y-6.7736
X6.5336Y-5.4351
X6.5336Y-5.4351
X6.5336Y-6.1043
X6.5336Y-6.1043
X6.5336Y-4.7658
X6.5336Y-4.7658
X6.6533Y-7.5297
X6.6533Y-7.5297
X6.7305Y-6.8603
X6.7305Y-5.5217
X6.7305Y-6.191
X6.7305Y-4.8524
X6.821Y-7.6643
X7.1191Y-8.0754
X7.1425Y-7.8616
X7.1425Y-7.8616
X7.3159Y-7.7344
T5
X2.8194Y-5.2772
X2.8661Y-5.9449
X2.9128Y-6.6125
X2.9595Y-7.2802
X3.6128Y-5.1247
X3.6362Y-5.7936
X3.6595Y-6.4625
X3.6829Y-7.1313
X4.4076Y-6.9095
X4.4076Y-5.5709
X4.4076Y-4.9016
X4.4076Y-6.2402
X4.4076Y-7.5788
X5.1163Y-6.1417
X5.1163Y-4.8032
X5.1163Y-7.4803
X5.1163Y-5.4725
X5.1163Y-6.811
X5.8249Y-4.9016
X5.8249Y-6.9095
X5.8249Y-7.5788
X5.8249Y-5.5709
X5.8249Y-6.2402
X6.5336Y-7.0079
X6.5336Y-5.6693
X6.5336Y-6.3386
X6.5336Y-5.0
X6.5927Y-7.7559
X7.3454Y-7.9787
T0
M30
