M48
; DRILL file {KiCad (6.0.11-0)} date Tuesday, June 20, 2023 at 08:04:51 PM
; FORMAT={-:-/ absolute / inch / decimal}
; #@! TF.CreationDate,2023-06-20T20:04:51-05:00
; #@! TF.GenerationSoftware,Kicad,Pcbnew,(6.0.11-0)
; #@! TF.FileFunction,Plated,1,2,PTH
FMAT,2
INCH
; #@! TA.AperFunction,Plated,PTH,ViaDrill
T1C0.0157
; #@! TA.AperFunction,Plated,PTH,ComponentDrill
T2C0.0157
; #@! TA.AperFunction,Plated,PTH,ComponentDrill
T3C0.0354
; #@! TA.AperFunction,Plated,PTH,ComponentDrill
T4C0.0390
; #@! TA.AperFunction,Plated,PTH,ComponentDrill
T5C0.0390
; #@! TA.AperFunction,Plated,PTH,ComponentDrill
T6C0.0512
; #@! TA.AperFunction,Plated,PTH,ComponentDrill
T7C0.0591
; #@! TA.AperFunction,Plated,PTH,ComponentDrill
T8C0.0866
%
G90
G05
T1
X2.8074Y-5.1299
X2.8541Y-5.7976
X2.9008Y-6.4652
X2.9474Y-7.1329
X3.5106Y-7.5964
X3.608Y-4.9803
X3.6314Y-5.6492
X3.6432Y-7.6969
X3.6526Y-7.6486
X3.6547Y-6.3181
X3.6781Y-6.987
X3.8102Y-7.6546
X4.4055Y-4.7574
X4.4055Y-5.4267
X4.4055Y-6.7653
X4.4055Y-7.4346
X4.4055Y-6.096
X5.1142Y-5.9976
X5.1142Y-4.659
X5.1142Y-7.3361
X5.1142Y-5.3283
X5.1142Y-6.6668
X5.8228Y-4.7574
X5.8228Y-6.096
X5.8228Y-5.4267
X5.8228Y-6.7653
X5.8268Y-7.4409
X6.5315Y-6.8637
X6.5315Y-4.8558
X6.5315Y-6.1944
X6.5315Y-5.5251
X6.6231Y-7.6148
X7.122Y-6.1649
X7.1712Y-6.0763
X7.1712Y-6.1649
X7.1712Y-6.1157
X7.2193Y-7.9043
X7.2205Y-6.0566
X7.2205Y-6.0172
X7.2697Y-5.9582
X7.2697Y-5.9975
X7.309Y-5.8991
X7.309Y-5.9385
X7.3484Y-5.8794
X7.3484Y-5.8401
X7.3878Y-5.781
X7.3878Y-5.8204
X7.4271Y-5.7613
X7.4271Y-5.722
X7.4665Y-5.7023
X7.4665Y-5.6629
X7.5059Y-5.6432
X7.5059Y-5.6039
X7.5453Y-5.5842
X7.5453Y-5.5448
T2
X3.1434Y-7.737
X3.1592Y-7.6898
X3.1653Y-5.4717
X3.1656Y-7.7815
X3.1819Y-5.4248
X3.1867Y-5.5166
X3.2037Y-7.6676
X3.2127Y-7.7972
X3.2267Y-5.4034
X3.2335Y-5.5332
X3.2508Y-7.6834
X3.2572Y-7.7751
X3.273Y-7.7279
X3.2736Y-5.42
X3.2784Y-5.5118
X3.295Y-5.4649
X7.0316Y-7.4429
X7.0507Y-7.397
X7.0507Y-7.4889
X7.0966Y-7.378
X7.0966Y-7.5079
X7.1425Y-7.397
X7.1425Y-7.4889
X7.1616Y-7.4429
X7.5513Y-4.9331
X7.5703Y-4.8872
X7.5703Y-4.979
X7.6163Y-4.8681
X7.6163Y-4.998
X7.6622Y-4.8872
X7.6622Y-4.979
X7.6812Y-4.9331
T3
X7.5454Y-4.6988
X7.6242Y-4.6988
X7.7029Y-4.6988
T4
X7.0966Y-4.7139
X7.2738Y-4.7139
T5
X2.6835Y-5.484
X2.7302Y-6.1517
X2.7769Y-6.8194
X2.8236Y-7.487
X2.9828Y-5.4631
X3.0295Y-6.1308
X3.0762Y-6.7984
X3.1229Y-7.4661
X3.4698Y-5.3267
X3.4931Y-5.9955
X3.5165Y-6.6644
X3.5399Y-7.3333
X3.7696Y-5.3162
X3.793Y-5.9851
X3.8163Y-6.6539
X3.8397Y-7.3228
X4.2576Y-5.0984
X4.2576Y-6.437
X4.2576Y-7.7756
X4.2576Y-5.7677
X4.2576Y-7.1063
X4.5576Y-5.0984
X4.5576Y-6.437
X4.5576Y-7.7756
X4.5576Y-5.7677
X4.5576Y-7.1063
X4.9663Y-5.0
X4.9663Y-7.6772
X4.9663Y-7.0079
X4.9663Y-5.6693
X4.9663Y-6.3386
X5.2663Y-5.0
X5.2663Y-7.6772
X5.2663Y-7.0079
X5.2663Y-5.6693
X5.2663Y-6.3386
X5.6749Y-5.0984
X5.6749Y-5.7677
X5.6749Y-6.437
X5.6749Y-7.1063
X5.6749Y-7.7756
X5.9749Y-5.0984
X5.9749Y-5.7677
X5.9749Y-6.437
X5.9749Y-7.1063
X5.9749Y-7.7756
X6.3836Y-7.2047
X6.3836Y-5.1969
X6.3836Y-6.5354
X6.3836Y-5.8662
X6.3968Y-7.9072
X6.6836Y-7.2047
X6.6836Y-5.1969
X6.6836Y-6.5354
X6.6836Y-5.8662
X6.6866Y-7.9849
X7.4408Y-8.207
X7.5908Y-7.9472
T6
X7.0474Y-4.8119
X7.3234Y-4.8119
T7
X7.4627Y-4.6988
X7.7856Y-4.6988
T8
X3.2082Y-7.7324
X3.2301Y-5.4683
X7.0966Y-7.4429
X7.6163Y-4.9331
T0
M30
