%TF.GenerationSoftware,KiCad,Pcbnew,(6.0.11-0)*%
%TF.CreationDate,2023-07-02T11:26:45-05:00*%
%TF.ProjectId,typeboy,74797065-626f-4792-9e6b-696361645f70,v1.0.0*%
%TF.SameCoordinates,Original*%
%TF.FileFunction,Paste,Bot*%
%TF.FilePolarity,Positive*%
%FSLAX46Y46*%
G04 Gerber Fmt 4.6, Leading zero omitted, Abs format (unit mm)*
G04 Created by KiCad (PCBNEW (6.0.11-0)) date 2023-07-02 11:26:45*
%MOMM*%
%LPD*%
G01*
G04 APERTURE LIST*
G04 Aperture macros list*
%AMRotRect*
0 Rectangle, with rotation*
0 The origin of the aperture is its center*
0 $1 length*
0 $2 width*
0 $3 Rotation angle, in degrees counterclockwise*
0 Add horizontal line*
21,1,$1,$2,0,0,$3*%
G04 Aperture macros list end*
%ADD10R,0.900000X1.200000*%
%ADD11R,2.600000X2.600000*%
%ADD12RotRect,2.600000X2.600000X4.000000*%
%ADD13R,2.500000X1.000000*%
%ADD14R,2.000000X4.500000*%
%ADD15RotRect,0.900000X1.200000X2.000000*%
%ADD16RotRect,2.600000X2.600000X2.000000*%
%ADD17RotRect,0.900000X1.200000X4.000000*%
%ADD18RotRect,1.000000X1.300000X169.000000*%
%ADD19RotRect,0.900000X1.200000X60.000000*%
%ADD20RotRect,0.900000X1.200000X345.000000*%
%ADD21RotRect,2.600000X2.600000X345.000000*%
%ADD22RotRect,2.600000X2.600000X60.000000*%
G04 APERTURE END LIST*
D10*
%TO.C,D27*%
X160043765Y-130910944D03*
X163343765Y-130910944D03*
%TD*%
%TO.C,D17*%
X124043771Y-142910938D03*
X127343771Y-142910938D03*
%TD*%
D11*
%TO.C,S13*%
X104418771Y-117460943D03*
X115968771Y-119660943D03*
%TD*%
D10*
%TO.C,D15*%
X124043769Y-176910943D03*
X127343769Y-176910943D03*
%TD*%
D12*
%TO.C,S3*%
X64857816Y-144202788D03*
X76533145Y-145591742D03*
%TD*%
D13*
%TO.C,J2*%
X174643769Y-132248451D03*
X174643769Y-133748451D03*
X174643769Y-135248451D03*
X174643769Y-136748451D03*
X174643769Y-138248451D03*
X174643769Y-139748451D03*
X174643769Y-141248451D03*
X174643769Y-142748451D03*
X174643769Y-144248451D03*
X174643769Y-145748451D03*
X174643769Y-147248451D03*
X174643769Y-148748451D03*
X174643769Y-150248451D03*
X174643769Y-151748451D03*
X174643769Y-153248451D03*
X174643769Y-154748451D03*
X174643769Y-156248451D03*
X174643769Y-157748451D03*
X174643769Y-159248451D03*
X174643769Y-160748451D03*
X174643769Y-162248451D03*
X174643769Y-163748451D03*
X174643769Y-165248451D03*
X174643769Y-166748451D03*
X174643769Y-168248451D03*
X174643769Y-169748451D03*
X174643769Y-171248451D03*
X174643769Y-172748451D03*
X174643769Y-174248451D03*
X174643769Y-175748451D03*
X174643769Y-177248451D03*
X174643769Y-178748451D03*
D14*
X193314569Y-168180491D03*
X193314569Y-142816411D03*
%TD*%
D10*
%TO.C,D19*%
X142043767Y-196410939D03*
X145343767Y-196410939D03*
%TD*%
%TO.C,D16*%
X124043769Y-159910942D03*
X127343769Y-159910942D03*
%TD*%
D15*
%TO.C,D8*%
X86031565Y-134132048D03*
X89329555Y-134016880D03*
%TD*%
D11*
%TO.C,S27*%
X158418764Y-119960945D03*
X169968764Y-122160945D03*
%TD*%
D16*
%TO.C,S7*%
X84618695Y-140235075D03*
X96238438Y-142030646D03*
%TD*%
D17*
%TO.C,D3*%
X67242691Y-155012767D03*
X70534653Y-154782571D03*
%TD*%
%TO.C,D4*%
X66056832Y-138054181D03*
X69348794Y-137823985D03*
%TD*%
D10*
%TO.C,D26*%
X160043767Y-147910947D03*
X163343767Y-147910947D03*
%TD*%
D12*
%TO.C,S1*%
X67229533Y-178119970D03*
X78904862Y-179508924D03*
%TD*%
D18*
%TO.C,S\u002A\u002A*%
X92946288Y-196008995D03*
X87056525Y-194864141D03*
X90983033Y-195627377D03*
X89019779Y-195245759D03*
%TD*%
D11*
%TO.C,S9*%
X104418767Y-185460946D03*
X115968767Y-187660946D03*
%TD*%
D19*
%TO.C,D29*%
X185817614Y-205498624D03*
X187467614Y-202640740D03*
%TD*%
D11*
%TO.C,S10*%
X104418768Y-168460941D03*
X115968768Y-170660941D03*
%TD*%
%TO.C,S19*%
X140418769Y-185460937D03*
X151968769Y-187660937D03*
%TD*%
D20*
%TO.C,D28*%
X160305895Y-200313519D03*
X163493451Y-201167621D03*
%TD*%
D10*
%TO.C,D24*%
X160043773Y-181910941D03*
X163343773Y-181910941D03*
%TD*%
D16*
%TO.C,S8*%
X84025413Y-123245431D03*
X95645156Y-125041002D03*
%TD*%
D17*
%TO.C,D2*%
X68428553Y-171971352D03*
X71720515Y-171741156D03*
%TD*%
D10*
%TO.C,D20*%
X142043769Y-179410938D03*
X145343769Y-179410938D03*
%TD*%
D11*
%TO.C,S20*%
X140418769Y-168460940D03*
X151968769Y-170660940D03*
%TD*%
D10*
%TO.C,D12*%
X106043759Y-145410945D03*
X109343759Y-145410945D03*
%TD*%
D11*
%TO.C,S14*%
X122418773Y-182960943D03*
X133968773Y-185160943D03*
%TD*%
%TO.C,S18*%
X122418769Y-114960937D03*
X133968769Y-117160937D03*
%TD*%
%TO.C,S25*%
X158418767Y-153960940D03*
X169968767Y-156160940D03*
%TD*%
D12*
%TO.C,S2*%
X66043676Y-161161383D03*
X77719005Y-162550337D03*
%TD*%
D10*
%TO.C,D21*%
X142043768Y-162410943D03*
X145343768Y-162410943D03*
%TD*%
%TO.C,D14*%
X124043773Y-193910948D03*
X127343773Y-193910948D03*
%TD*%
D17*
%TO.C,D1*%
X69614409Y-188929939D03*
X72906371Y-188699743D03*
%TD*%
D10*
%TO.C,D22*%
X142043770Y-145410947D03*
X145343770Y-145410947D03*
%TD*%
D11*
%TO.C,S17*%
X122418766Y-131960943D03*
X133968766Y-134160943D03*
%TD*%
%TO.C,S15*%
X122418767Y-165960944D03*
X133968767Y-168160944D03*
%TD*%
%TO.C,S21*%
X140418772Y-151460945D03*
X151968772Y-153660945D03*
%TD*%
%TO.C,S22*%
X140418770Y-134460947D03*
X151968770Y-136660947D03*
%TD*%
%TO.C,S24*%
X158418769Y-170960940D03*
X169968769Y-173160940D03*
%TD*%
D16*
%TO.C,S5*%
X85805282Y-174214365D03*
X97425025Y-176009936D03*
%TD*%
D10*
%TO.C,D9*%
X106043764Y-196410940D03*
X109343764Y-196410940D03*
%TD*%
D21*
%TO.C,S28*%
X161570334Y-189316056D03*
X172157376Y-194430453D03*
%TD*%
D11*
%TO.C,S11*%
X104418770Y-151460945D03*
X115968770Y-153660945D03*
%TD*%
D22*
%TO.C,S29*%
X175522132Y-201430918D03*
X183202388Y-192528325D03*
%TD*%
D15*
%TO.C,D7*%
X86624867Y-151121690D03*
X89922857Y-151006522D03*
%TD*%
D10*
%TO.C,D11*%
X106043764Y-162410948D03*
X109343764Y-162410948D03*
%TD*%
D16*
%TO.C,S6*%
X85211991Y-157224718D03*
X96831734Y-159020289D03*
%TD*%
D11*
%TO.C,S12*%
X104418767Y-134460944D03*
X115968767Y-136660944D03*
%TD*%
D15*
%TO.C,D5*%
X87811436Y-185100981D03*
X91109426Y-184985813D03*
%TD*%
D11*
%TO.C,S23*%
X140418773Y-117460944D03*
X151968773Y-119660944D03*
%TD*%
D10*
%TO.C,D18*%
X124043767Y-125910939D03*
X127343767Y-125910939D03*
%TD*%
D11*
%TO.C,S26*%
X158418770Y-136960950D03*
X169968770Y-139160950D03*
%TD*%
D10*
%TO.C,D25*%
X160043770Y-164910936D03*
X163343770Y-164910936D03*
%TD*%
D11*
%TO.C,S16*%
X122418771Y-148960946D03*
X133968771Y-151160946D03*
%TD*%
D12*
%TO.C,S4*%
X63671960Y-127244208D03*
X75347289Y-128633162D03*
%TD*%
D10*
%TO.C,D13*%
X106043768Y-128410940D03*
X109343768Y-128410940D03*
%TD*%
%TO.C,D10*%
X106043768Y-179410941D03*
X109343768Y-179410941D03*
%TD*%
%TO.C,D23*%
X142043772Y-128410944D03*
X145343772Y-128410944D03*
%TD*%
D15*
%TO.C,D6*%
X87218148Y-168111335D03*
X90516138Y-167996167D03*
%TD*%
M02*
