%TF.GenerationSoftware,KiCad,Pcbnew,(6.0.11-0)*%
%TF.CreationDate,2023-06-25T12:17:34-05:00*%
%TF.ProjectId,TypePak,54797065-5061-46b2-9e6b-696361645f70,rev?*%
%TF.SameCoordinates,Original*%
%TF.FileFunction,Legend,Top*%
%TF.FilePolarity,Positive*%
%FSLAX46Y46*%
G04 Gerber Fmt 4.6, Leading zero omitted, Abs format (unit mm)*
G04 Created by KiCad (PCBNEW (6.0.11-0)) date 2023-06-25 12:17:34*
%MOMM*%
%LPD*%
G01*
G04 APERTURE LIST*
%ADD10C,0.120000*%
%ADD11C,0.080000*%
%ADD12C,0.150000*%
G04 APERTURE END LIST*
D10*
X144625000Y-88000000D02*
X144875000Y-88000000D01*
X145500000Y-86750000D02*
X144750000Y-87500000D01*
X144750000Y-89750000D02*
X146250000Y-88250000D01*
X146250000Y-88250000D02*
X145500000Y-86750000D01*
X144750000Y-89750000D02*
X143250000Y-88250000D01*
X144250000Y-89250000D02*
X145250000Y-89250000D01*
X144000000Y-86750000D02*
X143250000Y-88250000D01*
X144000000Y-86750000D02*
X144750000Y-87500000D01*
D11*
%TO.C,FB1*%
X150833333Y-94714285D02*
X150666666Y-94714285D01*
X150666666Y-94976190D02*
X150666666Y-94476190D01*
X150904761Y-94476190D01*
X151261904Y-94714285D02*
X151333333Y-94738095D01*
X151357142Y-94761904D01*
X151380952Y-94809523D01*
X151380952Y-94880952D01*
X151357142Y-94928571D01*
X151333333Y-94952380D01*
X151285714Y-94976190D01*
X151095238Y-94976190D01*
X151095238Y-94476190D01*
X151261904Y-94476190D01*
X151309523Y-94500000D01*
X151333333Y-94523809D01*
X151357142Y-94571428D01*
X151357142Y-94619047D01*
X151333333Y-94666666D01*
X151309523Y-94690476D01*
X151261904Y-94714285D01*
X151095238Y-94714285D01*
X151857142Y-94976190D02*
X151571428Y-94976190D01*
X151714285Y-94976190D02*
X151714285Y-94476190D01*
X151666666Y-94547619D01*
X151619047Y-94595238D01*
X151571428Y-94619047D01*
D12*
%TO.C,J1*%
X126378571Y-109536904D02*
X125921428Y-109536904D01*
X126150000Y-109536904D02*
X126150000Y-108736904D01*
X126073809Y-108851190D01*
X125997619Y-108927380D01*
X125921428Y-108965476D01*
X172502380Y-108736904D02*
X172997619Y-108736904D01*
X172730952Y-109041666D01*
X172845238Y-109041666D01*
X172921428Y-109079761D01*
X172959523Y-109117857D01*
X172997619Y-109194047D01*
X172997619Y-109384523D01*
X172959523Y-109460714D01*
X172921428Y-109498809D01*
X172845238Y-109536904D01*
X172616666Y-109536904D01*
X172540476Y-109498809D01*
X172502380Y-109460714D01*
X173302380Y-108813095D02*
X173340476Y-108775000D01*
X173416666Y-108736904D01*
X173607142Y-108736904D01*
X173683333Y-108775000D01*
X173721428Y-108813095D01*
X173759523Y-108889285D01*
X173759523Y-108965476D01*
X173721428Y-109079761D01*
X173264285Y-109536904D01*
X173759523Y-109536904D01*
D11*
%TO.C,FB2*%
X150833333Y-91964285D02*
X150666666Y-91964285D01*
X150666666Y-92226190D02*
X150666666Y-91726190D01*
X150904761Y-91726190D01*
X151261904Y-91964285D02*
X151333333Y-91988095D01*
X151357142Y-92011904D01*
X151380952Y-92059523D01*
X151380952Y-92130952D01*
X151357142Y-92178571D01*
X151333333Y-92202380D01*
X151285714Y-92226190D01*
X151095238Y-92226190D01*
X151095238Y-91726190D01*
X151261904Y-91726190D01*
X151309523Y-91750000D01*
X151333333Y-91773809D01*
X151357142Y-91821428D01*
X151357142Y-91869047D01*
X151333333Y-91916666D01*
X151309523Y-91940476D01*
X151261904Y-91964285D01*
X151095238Y-91964285D01*
X151571428Y-91773809D02*
X151595238Y-91750000D01*
X151642857Y-91726190D01*
X151761904Y-91726190D01*
X151809523Y-91750000D01*
X151833333Y-91773809D01*
X151857142Y-91821428D01*
X151857142Y-91869047D01*
X151833333Y-91940476D01*
X151547619Y-92226190D01*
X151857142Y-92226190D01*
%TO.C,C1*%
X144928571Y-93333333D02*
X144952380Y-93357142D01*
X144976190Y-93428571D01*
X144976190Y-93476190D01*
X144952380Y-93547619D01*
X144904761Y-93595238D01*
X144857142Y-93619047D01*
X144761904Y-93642857D01*
X144690476Y-93642857D01*
X144595238Y-93619047D01*
X144547619Y-93595238D01*
X144500000Y-93547619D01*
X144476190Y-93476190D01*
X144476190Y-93428571D01*
X144500000Y-93357142D01*
X144523809Y-93333333D01*
X144976190Y-92857142D02*
X144976190Y-93142857D01*
X144976190Y-93000000D02*
X144476190Y-93000000D01*
X144547619Y-93047619D01*
X144595238Y-93095238D01*
X144619047Y-93142857D01*
%TO.C,C3*%
X157166666Y-90928571D02*
X157142857Y-90952380D01*
X157071428Y-90976190D01*
X157023809Y-90976190D01*
X156952380Y-90952380D01*
X156904761Y-90904761D01*
X156880952Y-90857142D01*
X156857142Y-90761904D01*
X156857142Y-90690476D01*
X156880952Y-90595238D01*
X156904761Y-90547619D01*
X156952380Y-90500000D01*
X157023809Y-90476190D01*
X157071428Y-90476190D01*
X157142857Y-90500000D01*
X157166666Y-90523809D01*
X157333333Y-90476190D02*
X157642857Y-90476190D01*
X157476190Y-90666666D01*
X157547619Y-90666666D01*
X157595238Y-90690476D01*
X157619047Y-90714285D01*
X157642857Y-90761904D01*
X157642857Y-90880952D01*
X157619047Y-90928571D01*
X157595238Y-90952380D01*
X157547619Y-90976190D01*
X157404761Y-90976190D01*
X157357142Y-90952380D01*
X157333333Y-90928571D01*
%TO.C,C2*%
X147678571Y-93333333D02*
X147702380Y-93357142D01*
X147726190Y-93428571D01*
X147726190Y-93476190D01*
X147702380Y-93547619D01*
X147654761Y-93595238D01*
X147607142Y-93619047D01*
X147511904Y-93642857D01*
X147440476Y-93642857D01*
X147345238Y-93619047D01*
X147297619Y-93595238D01*
X147250000Y-93547619D01*
X147226190Y-93476190D01*
X147226190Y-93428571D01*
X147250000Y-93357142D01*
X147273809Y-93333333D01*
X147273809Y-93142857D02*
X147250000Y-93119047D01*
X147226190Y-93071428D01*
X147226190Y-92952380D01*
X147250000Y-92904761D01*
X147273809Y-92880952D01*
X147321428Y-92857142D01*
X147369047Y-92857142D01*
X147440476Y-92880952D01*
X147726190Y-93166666D01*
X147726190Y-92857142D01*
D10*
%TO.C,FB1*%
X151477064Y-95485000D02*
X151022936Y-95485000D01*
X151477064Y-94015000D02*
X151022936Y-94015000D01*
%TO.C,FB2*%
X151022936Y-92735000D02*
X151477064Y-92735000D01*
X151022936Y-91265000D02*
X151477064Y-91265000D01*
%TO.C,C1*%
X144015000Y-93511252D02*
X144015000Y-92988748D01*
X145485000Y-93511252D02*
X145485000Y-92988748D01*
%TO.C,C3*%
X157511252Y-91485000D02*
X156988748Y-91485000D01*
X157511252Y-90015000D02*
X156988748Y-90015000D01*
%TO.C,U2*%
X143240000Y-101600000D02*
X143240000Y-105050000D01*
X153360000Y-101600000D02*
X153360000Y-103550000D01*
X143240000Y-101600000D02*
X143240000Y-99650000D01*
X153360000Y-101600000D02*
X153360000Y-99650000D01*
%TO.C,C2*%
X146765000Y-93511252D02*
X146765000Y-92988748D01*
X148235000Y-93511252D02*
X148235000Y-92988748D01*
%TO.C,J3*%
X161250000Y-94100000D02*
X159510000Y-94100000D01*
X155450000Y-102400000D02*
X156790000Y-102400000D01*
X155450000Y-94100000D02*
X156790000Y-94100000D01*
X159510000Y-102400000D02*
X161250000Y-102400000D01*
X155450000Y-95590000D02*
X155450000Y-94100000D01*
X161250000Y-102400000D02*
X161250000Y-94100000D01*
X155450000Y-100910000D02*
X154250000Y-100910000D01*
X155450000Y-100910000D02*
X155450000Y-102400000D01*
%TD*%
G36*
X145013931Y-89270002D02*
G01*
X145060424Y-89323658D01*
X145070528Y-89393932D01*
X145041034Y-89458512D01*
X145034905Y-89465095D01*
X144839095Y-89660905D01*
X144776783Y-89694931D01*
X144705968Y-89689866D01*
X144660905Y-89660905D01*
X144465095Y-89465095D01*
X144431069Y-89402783D01*
X144436134Y-89331968D01*
X144478681Y-89275132D01*
X144545201Y-89250321D01*
X144554190Y-89250000D01*
X144945810Y-89250000D01*
X145013931Y-89270002D01*
G37*
M02*
