M48
; DRILL file {KiCad (6.0.11-0)} date Sunday, June 25, 2023 at 12:17:36 PM
; FORMAT={-:-/ absolute / inch / decimal}
; #@! TF.CreationDate,2023-06-25T12:17:36-05:00
; #@! TF.GenerationSoftware,Kicad,Pcbnew,(6.0.11-0)
; #@! TF.FileFunction,Plated,1,2,PTH
FMAT,2
INCH
; #@! TA.AperFunction,Plated,PTH,ViaDrill
T1C0.0157
; #@! TA.AperFunction,Plated,PTH,ComponentDrill
T2C0.0236
; #@! TA.AperFunction,Plated,PTH,ComponentDrill
T3C0.0394
; #@! TA.AperFunction,Plated,PTH,ComponentDrill
T4C0.0400
%
G90
G05
T1
X5.1575Y-3.9439
X5.1575Y-3.9832
X5.1575Y-4.0226
X5.1575Y-4.0619
X5.1575Y-4.1013
X5.1575Y-4.1406
X5.5316Y-4.2087
X5.8071Y-3.8474
X5.8563Y-3.8287
X5.9055Y-3.9665
X5.9547Y-3.8287
X6.0138Y-3.8287
X6.1516Y-3.7598
X6.1516Y-4.1831
X6.1909Y-3.8189
X6.1909Y-4.1535
X6.2303Y-3.6319
T2
X4.9764Y-4.3543
X5.0354Y-4.3543
X5.0945Y-4.3543
X5.1535Y-4.3543
X5.2126Y-4.3543
X5.2717Y-4.3543
X5.3307Y-4.3543
X5.3898Y-4.3543
X5.4488Y-4.3543
X5.5079Y-4.3543
X5.5669Y-4.3543
X5.626Y-4.3543
X5.685Y-4.3543
X5.7441Y-4.3543
X5.8031Y-4.3543
X5.8622Y-4.3543
X5.9213Y-4.3543
X5.9803Y-4.3543
X6.0394Y-4.3543
X6.0984Y-4.3543
X6.122Y-3.4252
X6.1575Y-4.3543
X6.2165Y-4.3543
X6.2638Y-3.4252
X6.2756Y-4.3543
X6.3346Y-4.3543
X6.3937Y-4.3543
X6.4528Y-4.3543
X6.5118Y-4.3543
X6.5709Y-4.3543
X6.6299Y-4.3543
X6.689Y-4.3543
X6.748Y-4.3543
X6.8071Y-4.3543
T3
X4.9461Y-3.4697
X4.9461Y-3.5697
X4.9461Y-3.6697
X4.9461Y-3.7697
X4.9461Y-3.8697
X4.9461Y-3.9697
X4.9461Y-4.0697
X5.5461Y-3.4697
X5.5461Y-3.5697
X5.5461Y-3.6697
X5.5461Y-3.7697
X5.5461Y-3.8697
X5.5461Y-3.9697
X5.5461Y-4.0697
T4
X5.0711Y-3.6822
X5.0711Y-3.7572
X5.1961Y-3.4322
X5.1961Y-3.5322
X5.2961Y-3.4322
X5.2961Y-3.5322
X5.3958Y-4.1162
X5.4708Y-4.1162
T0
M30
