%TF.GenerationSoftware,KiCad,Pcbnew,(6.0.11-0)*%
%TF.CreationDate,2023-06-20T20:05:40-05:00*%
%TF.ProjectId,TypePak,54797065-5061-46b2-9e6b-696361645f70,rev?*%
%TF.SameCoordinates,Original*%
%TF.FileFunction,Soldermask,Top*%
%TF.FilePolarity,Negative*%
%FSLAX46Y46*%
G04 Gerber Fmt 4.6, Leading zero omitted, Abs format (unit mm)*
G04 Created by KiCad (PCBNEW (6.0.11-0)) date 2023-06-20 20:05:40*
%MOMM*%
%LPD*%
G01*
G04 APERTURE LIST*
G04 Aperture macros list*
%AMRoundRect*
0 Rectangle with rounded corners*
0 $1 Rounding radius*
0 $2 $3 $4 $5 $6 $7 $8 $9 X,Y pos of 4 corners*
0 Add a 4 corners polygon primitive as box body*
4,1,4,$2,$3,$4,$5,$6,$7,$8,$9,$2,$3,0*
0 Add four circle primitives for the rounded corners*
1,1,$1+$1,$2,$3*
1,1,$1+$1,$4,$5*
1,1,$1+$1,$6,$7*
1,1,$1+$1,$8,$9*
0 Add four rect primitives between the rounded corners*
20,1,$1+$1,$2,$3,$4,$5,0*
20,1,$1+$1,$4,$5,$6,$7,0*
20,1,$1+$1,$6,$7,$8,$9,0*
20,1,$1+$1,$8,$9,$2,$3,0*%
G04 Aperture macros list end*
%ADD10RoundRect,0.300000X0.350000X0.450000X-0.350000X0.450000X-0.350000X-0.450000X0.350000X-0.450000X0*%
%ADD11C,0.900000*%
%ADD12RoundRect,0.300000X-0.350000X-0.450000X0.350000X-0.450000X0.350000X0.450000X-0.350000X0.450000X0*%
%ADD13RoundRect,0.300000X0.475000X-0.337500X0.475000X0.337500X-0.475000X0.337500X-0.475000X-0.337500X0*%
%ADD14RoundRect,0.300000X0.337500X0.475000X-0.337500X0.475000X-0.337500X-0.475000X0.337500X-0.475000X0*%
%ADD15RoundRect,0.200000X0.150000X-0.825000X0.150000X0.825000X-0.150000X0.825000X-0.150000X-0.825000X0*%
%ADD16RoundRect,0.050000X0.650000X-0.150000X0.650000X0.150000X-0.650000X0.150000X-0.650000X-0.150000X0*%
%ADD17RoundRect,0.050000X1.100000X-0.900000X1.100000X0.900000X-1.100000X0.900000X-1.100000X-0.900000X0*%
%ADD18O,2.850000X1.900000*%
%ADD19C,1.497000*%
%ADD20RoundRect,0.300000X-0.550000X-0.550000X0.550000X-0.550000X0.550000X0.550000X-0.550000X0.550000X0*%
%ADD21C,1.700000*%
G04 APERTURE END LIST*
%TO.C,J1*%
G36*
X173900000Y-115800000D02*
G01*
X173400000Y-116300000D01*
X172400000Y-116300000D01*
X172400000Y-111300000D01*
X173900000Y-111300000D01*
X173900000Y-115800000D01*
G37*
G36*
X141900000Y-116000000D02*
G01*
X140900000Y-116000000D01*
X140900000Y-111300000D01*
X141900000Y-111300000D01*
X141900000Y-116000000D01*
G37*
G36*
X146400000Y-116000000D02*
G01*
X145400000Y-116000000D01*
X145400000Y-111300000D01*
X146400000Y-111300000D01*
X146400000Y-116000000D01*
G37*
G36*
X159900000Y-116000000D02*
G01*
X158900000Y-116000000D01*
X158900000Y-111300000D01*
X159900000Y-111300000D01*
X159900000Y-116000000D01*
G37*
G36*
X171900000Y-116000000D02*
G01*
X170900000Y-116000000D01*
X170900000Y-111300000D01*
X171900000Y-111300000D01*
X171900000Y-116000000D01*
G37*
G36*
X135900000Y-116000000D02*
G01*
X134900000Y-116000000D01*
X134900000Y-111300000D01*
X135900000Y-111300000D01*
X135900000Y-116000000D01*
G37*
G36*
X156900000Y-116000000D02*
G01*
X155900000Y-116000000D01*
X155900000Y-111300000D01*
X156900000Y-111300000D01*
X156900000Y-116000000D01*
G37*
G36*
X167400000Y-116000000D02*
G01*
X166400000Y-116000000D01*
X166400000Y-111300000D01*
X167400000Y-111300000D01*
X167400000Y-116000000D01*
G37*
G36*
X137400000Y-116000000D02*
G01*
X136400000Y-116000000D01*
X136400000Y-111300000D01*
X137400000Y-111300000D01*
X137400000Y-116000000D01*
G37*
G36*
X152400000Y-116000000D02*
G01*
X151400000Y-116000000D01*
X151400000Y-111300000D01*
X152400000Y-111300000D01*
X152400000Y-116000000D01*
G37*
G36*
X174550000Y-117250000D02*
G01*
X124750000Y-117250000D01*
X124750000Y-111300000D01*
X174550000Y-111300000D01*
X174550000Y-117250000D01*
G37*
G36*
X162900000Y-116000000D02*
G01*
X161900000Y-116000000D01*
X161900000Y-111300000D01*
X162900000Y-111300000D01*
X162900000Y-116000000D01*
G37*
G36*
X161400000Y-116000000D02*
G01*
X160400000Y-116000000D01*
X160400000Y-111300000D01*
X161400000Y-111300000D01*
X161400000Y-116000000D01*
G37*
G36*
X143400000Y-116000000D02*
G01*
X142400000Y-116000000D01*
X142400000Y-111300000D01*
X143400000Y-111300000D01*
X143400000Y-116000000D01*
G37*
G36*
X168900000Y-116000000D02*
G01*
X167900000Y-116000000D01*
X167900000Y-111300000D01*
X168900000Y-111300000D01*
X168900000Y-116000000D01*
G37*
G36*
X131400000Y-116000000D02*
G01*
X130400000Y-116000000D01*
X130400000Y-111300000D01*
X131400000Y-111300000D01*
X131400000Y-116000000D01*
G37*
G36*
X155400000Y-116000000D02*
G01*
X154400000Y-116000000D01*
X154400000Y-111300000D01*
X155400000Y-111300000D01*
X155400000Y-116000000D01*
G37*
G36*
X149400000Y-116000000D02*
G01*
X148400000Y-116000000D01*
X148400000Y-111300000D01*
X149400000Y-111300000D01*
X149400000Y-116000000D01*
G37*
G36*
X164400000Y-116000000D02*
G01*
X163400000Y-116000000D01*
X163400000Y-111300000D01*
X164400000Y-111300000D01*
X164400000Y-116000000D01*
G37*
G36*
X128400000Y-116000000D02*
G01*
X127400000Y-116000000D01*
X127400000Y-111300000D01*
X128400000Y-111300000D01*
X128400000Y-116000000D01*
G37*
G36*
X150900000Y-116000000D02*
G01*
X149900000Y-116000000D01*
X149900000Y-111300000D01*
X150900000Y-111300000D01*
X150900000Y-116000000D01*
G37*
G36*
X132900000Y-116000000D02*
G01*
X131900000Y-116000000D01*
X131900000Y-111300000D01*
X132900000Y-111300000D01*
X132900000Y-116000000D01*
G37*
G36*
X126900000Y-116300000D02*
G01*
X125900000Y-116300000D01*
X125400000Y-115800000D01*
X125400000Y-111300000D01*
X126900000Y-111300000D01*
X126900000Y-116300000D01*
G37*
G36*
X138900000Y-116000000D02*
G01*
X137900000Y-116000000D01*
X137900000Y-111300000D01*
X138900000Y-111300000D01*
X138900000Y-116000000D01*
G37*
G36*
X170400000Y-116000000D02*
G01*
X169400000Y-116000000D01*
X169400000Y-111300000D01*
X170400000Y-111300000D01*
X170400000Y-116000000D01*
G37*
G36*
X134400000Y-116000000D02*
G01*
X133400000Y-116000000D01*
X133400000Y-111300000D01*
X134400000Y-111300000D01*
X134400000Y-116000000D01*
G37*
G36*
X158400000Y-116000000D02*
G01*
X157400000Y-116000000D01*
X157400000Y-111300000D01*
X158400000Y-111300000D01*
X158400000Y-116000000D01*
G37*
G36*
X140400000Y-116000000D02*
G01*
X139400000Y-116000000D01*
X139400000Y-111300000D01*
X140400000Y-111300000D01*
X140400000Y-116000000D01*
G37*
G36*
X129900000Y-116000000D02*
G01*
X128900000Y-116000000D01*
X128900000Y-111300000D01*
X129900000Y-111300000D01*
X129900000Y-116000000D01*
G37*
G36*
X144900000Y-116000000D02*
G01*
X143900000Y-116000000D01*
X143900000Y-111300000D01*
X144900000Y-111300000D01*
X144900000Y-116000000D01*
G37*
G36*
X153900000Y-116000000D02*
G01*
X152900000Y-116000000D01*
X152900000Y-111300000D01*
X153900000Y-111300000D01*
X153900000Y-116000000D01*
G37*
G36*
X165900000Y-116000000D02*
G01*
X164900000Y-116000000D01*
X164900000Y-111300000D01*
X165900000Y-111300000D01*
X165900000Y-116000000D01*
G37*
G36*
X147900000Y-116000000D02*
G01*
X146900000Y-116000000D01*
X146900000Y-111300000D01*
X147900000Y-111300000D01*
X147900000Y-116000000D01*
G37*
%TD*%
D10*
%TO.C,FB1*%
X152250000Y-94750000D03*
X150250000Y-94750000D03*
%TD*%
D11*
%TO.C,J1*%
X126400000Y-110600000D03*
X127900000Y-110600000D03*
X129400000Y-110600000D03*
X130900000Y-110600000D03*
X132400000Y-110600000D03*
X133900000Y-110600000D03*
X135400000Y-110600000D03*
X136900000Y-110600000D03*
X138400000Y-110600000D03*
X139900000Y-110600000D03*
X141400000Y-110600000D03*
X142900000Y-110600000D03*
X144400000Y-110600000D03*
X145900000Y-110600000D03*
X147400000Y-110600000D03*
X148900000Y-110600000D03*
X150400000Y-110600000D03*
X151900000Y-110600000D03*
X153400000Y-110600000D03*
X154900000Y-110600000D03*
X156400000Y-110600000D03*
X157900000Y-110600000D03*
X159400000Y-110600000D03*
X160900000Y-110600000D03*
X162400000Y-110600000D03*
X163900000Y-110600000D03*
X165400000Y-110600000D03*
X166900000Y-110600000D03*
X168400000Y-110600000D03*
X169900000Y-110600000D03*
X171400000Y-110600000D03*
X172900000Y-110600000D03*
%TD*%
D12*
%TO.C,FB2*%
X150250000Y-92000000D03*
X152250000Y-92000000D03*
%TD*%
D13*
%TO.C,C1*%
X144750000Y-94287500D03*
X144750000Y-92212500D03*
%TD*%
D14*
%TO.C,C3*%
X158287500Y-90750000D03*
X156212500Y-90750000D03*
%TD*%
D15*
%TO.C,U2*%
X143855000Y-104075000D03*
X145125000Y-104075000D03*
X146395000Y-104075000D03*
X147665000Y-104075000D03*
X148935000Y-104075000D03*
X150205000Y-104075000D03*
X151475000Y-104075000D03*
X152745000Y-104075000D03*
X152745000Y-99125000D03*
X151475000Y-99125000D03*
X150205000Y-99125000D03*
X148935000Y-99125000D03*
X147665000Y-99125000D03*
X146395000Y-99125000D03*
X145125000Y-99125000D03*
X143855000Y-99125000D03*
%TD*%
D13*
%TO.C,C2*%
X147500000Y-94287500D03*
X147500000Y-92212500D03*
%TD*%
D16*
%TO.C,J3*%
X154900000Y-96000000D03*
X154900000Y-96500000D03*
X154900000Y-97000000D03*
X154900000Y-97500000D03*
X154900000Y-98000000D03*
X154900000Y-98500000D03*
X154900000Y-99000000D03*
X154900000Y-99500000D03*
X154900000Y-100000000D03*
X154900000Y-100500000D03*
D17*
X158150000Y-94100000D03*
X158150000Y-102400000D03*
%TD*%
D18*
%TO.C,U1*%
X125155000Y-88130000D03*
X125155000Y-90670000D03*
X125155000Y-93210000D03*
X125155000Y-95750000D03*
X125155000Y-98290000D03*
X125155000Y-100830000D03*
X125155000Y-103370000D03*
X141345000Y-103370000D03*
X141345000Y-100830000D03*
X141345000Y-98290000D03*
X141345000Y-95750000D03*
X141345000Y-93210000D03*
X141345000Y-90670000D03*
X141345000Y-88130000D03*
D19*
X131980000Y-87178000D03*
X134520000Y-87178000D03*
X131980000Y-89718000D03*
X134520000Y-89718000D03*
X128805000Y-95433000D03*
X128805000Y-93528000D03*
X137052408Y-104551408D03*
X138957408Y-104551408D03*
%TD*%
D20*
%TO.C,J2*%
X155500000Y-87000000D03*
D21*
X159100000Y-87000000D03*
%TD*%
G36*
X145592121Y-87770002D02*
G01*
X145638614Y-87823658D01*
X145650000Y-87876000D01*
X145650000Y-88124000D01*
X145629998Y-88192121D01*
X145576342Y-88238614D01*
X145524000Y-88250000D01*
X145026000Y-88250000D01*
X144957879Y-88229998D01*
X144911386Y-88176342D01*
X144900000Y-88124000D01*
X144900000Y-87876000D01*
X144920002Y-87807879D01*
X144973658Y-87761386D01*
X145026000Y-87750000D01*
X145524000Y-87750000D01*
X145592121Y-87770002D01*
G37*
G36*
X144542121Y-87770002D02*
G01*
X144588614Y-87823658D01*
X144600000Y-87876000D01*
X144600000Y-88124000D01*
X144579998Y-88192121D01*
X144526342Y-88238614D01*
X144474000Y-88250000D01*
X143976000Y-88250000D01*
X143907879Y-88229998D01*
X143861386Y-88176342D01*
X143850000Y-88124000D01*
X143850000Y-87876000D01*
X143870002Y-87807879D01*
X143923658Y-87761386D01*
X143976000Y-87750000D01*
X144474000Y-87750000D01*
X144542121Y-87770002D01*
G37*
M02*
