%TF.GenerationSoftware,KiCad,Pcbnew,(6.0.11-0)*%
%TF.CreationDate,2023-06-25T12:17:34-05:00*%
%TF.ProjectId,TypePak,54797065-5061-46b2-9e6b-696361645f70,rev?*%
%TF.SameCoordinates,Original*%
%TF.FileFunction,Profile,NP*%
%FSLAX46Y46*%
G04 Gerber Fmt 4.6, Leading zero omitted, Abs format (unit mm)*
G04 Created by KiCad (PCBNEW (6.0.11-0)) date 2023-06-25 12:17:34*
%MOMM*%
%LPD*%
G01*
G04 APERTURE LIST*
%TA.AperFunction,Profile*%
%ADD10C,0.050000*%
%TD*%
%TA.AperFunction,Profile*%
%ADD11C,0.120000*%
%TD*%
G04 APERTURE END LIST*
D10*
X172800000Y-117000000D02*
X126500000Y-117000000D01*
X174300000Y-115500000D02*
X174300000Y-108000000D01*
X125000000Y-108000000D02*
X124100000Y-108000000D01*
X125000000Y-115500000D02*
X125000000Y-108000000D01*
X123500000Y-104300000D02*
X123500000Y-85000000D01*
X175200000Y-108000000D02*
X174300000Y-108000000D01*
X175200000Y-106000000D02*
X175200000Y-108000000D01*
X146600000Y-87050000D02*
G75*
G03*
X152700000Y-87050000I3050000J0D01*
G01*
X152700000Y-85000000D02*
X152700000Y-87050000D01*
X146600000Y-85000000D02*
X146600000Y-87050000D01*
X123500000Y-85000000D02*
X146600000Y-85000000D01*
X172800000Y-117000000D02*
G75*
G03*
X174300000Y-115500000I0J1500000D01*
G01*
X125000000Y-115500000D02*
G75*
G03*
X126500000Y-117000000I1500000J0D01*
G01*
X124100000Y-104300000D02*
X124100000Y-108000000D01*
X123500000Y-104300000D02*
X124100000Y-104300000D01*
X161799998Y-106000000D02*
X175200000Y-106000000D01*
X161799998Y-85000000D02*
X161799998Y-106000000D01*
X161799998Y-85000000D02*
X152700000Y-85000000D01*
D11*
%TO.C,U1*%
X136798408Y-104119608D02*
X136798408Y-102519408D01*
X139211408Y-102519408D02*
X139211408Y-104119608D01*
X137179408Y-102138408D02*
X138830408Y-102138408D01*
X131726000Y-89286200D02*
X131726000Y-87609800D01*
X131218000Y-93655000D02*
X131218000Y-95306000D01*
X138525608Y-104805408D02*
X137484208Y-104805408D01*
X134774000Y-89286200D02*
X134774000Y-87609800D01*
X130837000Y-95687000D02*
X129236800Y-95687000D01*
X129236800Y-93274000D02*
X130837000Y-93274000D01*
X132411800Y-86924000D02*
X134088200Y-86924000D01*
X132411800Y-89972000D02*
X134088200Y-89972000D01*
X128551000Y-95001200D02*
X128551000Y-93959800D01*
X139211392Y-102519408D02*
G75*
G03*
X138830408Y-102138408I-380992J8D01*
G01*
X129236800Y-95687000D02*
G75*
G03*
X128551000Y-95001200I-438047J247753D01*
G01*
X134774000Y-89286200D02*
G75*
G03*
X134088200Y-89972000I-247753J-438047D01*
G01*
X134088200Y-86924000D02*
G75*
G03*
X134774000Y-87609800I438050J-247750D01*
G01*
X137484213Y-104805411D02*
G75*
G03*
X136798408Y-104119608I-438053J247751D01*
G01*
X131218000Y-93655000D02*
G75*
G03*
X130837000Y-93274000I-380999J1D01*
G01*
X139211408Y-104119608D02*
G75*
G03*
X138525608Y-104805408I-247758J-438042D01*
G01*
X137179408Y-102138408D02*
G75*
G03*
X136798408Y-102519408I-8J-380992D01*
G01*
X128551000Y-93959800D02*
G75*
G03*
X129236800Y-93274000I247753J438047D01*
G01*
X131726000Y-87609800D02*
G75*
G03*
X132411800Y-86924000I247753J438047D01*
G01*
X132411800Y-89972000D02*
G75*
G03*
X131726000Y-89286200I-438047J247753D01*
G01*
X130837000Y-95687000D02*
G75*
G03*
X131218000Y-95306000I1J380999D01*
G01*
%TD*%
M02*
